<svg width="20" height="20" viewBox="0 0 20 20" fill="none" xmlns="http://www.w3.org/2000/svg">
<path d="M13.9592 2.96699V1.66699C13.9592 1.32533 13.6758 1.04199 13.3342 1.04199C12.9925 1.04199 12.7092 1.32533 12.7092 1.66699V2.91699H7.29251V1.66699C7.29251 1.32533 7.00917 1.04199 6.66751 1.04199C6.32584 1.04199 6.04251 1.32533 6.04251 1.66699V2.96699C3.79251 3.17533 2.70084 4.51699 2.53418 6.50866C2.51751 6.75033 2.71751 6.95033 2.95084 6.95033H17.0508C17.2925 6.95033 17.4925 6.74199 17.4675 6.50866C17.3008 4.51699 16.2092 3.17533 13.9592 2.96699Z" fill="#E4E4E7"/>
<path opacity="0.4" d="M16.6667 8.2002C17.125 8.2002 17.5 8.5752 17.5 9.03354V14.1669C17.5 16.6669 16.25 18.3335 13.3333 18.3335H6.66667C3.75 18.3335 2.5 16.6669 2.5 14.1669V9.03354C2.5 8.5752 2.875 8.2002 3.33333 8.2002H16.6667Z" fill="#E4E4E7"/>
<path d="M7.08333 12.4997C6.86667 12.4997 6.65 12.4081 6.49167 12.2581C6.34167 12.0997 6.25 11.8831 6.25 11.6664C6.25 11.4497 6.34167 11.2331 6.49167 11.0747C6.725 10.8414 7.09167 10.7664 7.4 10.8997C7.50833 10.9414 7.6 10.9997 7.675 11.0747C7.825 11.2331 7.91667 11.4497 7.91667 11.6664C7.91667 11.8831 7.825 12.0997 7.675 12.2581C7.51667 12.4081 7.3 12.4997 7.08333 12.4997Z" fill="#E4E4E7"/>
<path d="M9.99935 12.4997C9.78268 12.4997 9.56602 12.4081 9.40768 12.2581C9.25768 12.0997 9.16602 11.8831 9.16602 11.6664C9.16602 11.4497 9.25768 11.2331 9.40768 11.0747C9.48268 10.9997 9.57435 10.9414 9.68268 10.8997C9.99102 10.7664 10.3577 10.8414 10.591 11.0747C10.741 11.2331 10.8327 11.4497 10.8327 11.6664C10.8327 11.8831 10.741 12.0997 10.591 12.2581C10.5493 12.2914 10.5077 12.3247 10.466 12.3581C10.416 12.3914 10.366 12.4164 10.316 12.4331C10.266 12.4581 10.216 12.4747 10.166 12.4831C10.1077 12.4914 10.0577 12.4997 9.99935 12.4997Z" fill="#E4E4E7"/>
<path d="M12.9173 12.4997C12.7007 12.4997 12.484 12.408 12.3257 12.258C12.1757 12.0997 12.084 11.883 12.084 11.6663C12.084 11.4497 12.1757 11.233 12.3257 11.0747C12.409 10.9997 12.4923 10.9413 12.6007 10.8997C12.7507 10.833 12.9173 10.8163 13.084 10.8497C13.134 10.858 13.184 10.8747 13.234 10.8997C13.284 10.9163 13.334 10.9413 13.384 10.9747C13.4257 11.008 13.4673 11.0413 13.509 11.0747C13.659 11.233 13.7507 11.4497 13.7507 11.6663C13.7507 11.883 13.659 12.0997 13.509 12.258C13.4673 12.2913 13.4257 12.3247 13.384 12.358C13.334 12.3913 13.284 12.4163 13.234 12.433C13.184 12.458 13.134 12.4747 13.084 12.483C13.0257 12.4913 12.9673 12.4997 12.9173 12.4997Z" fill="#E4E4E7"/>
<path d="M7.08333 15.4167C6.975 15.4167 6.86667 15.3917 6.76667 15.35C6.65833 15.3083 6.575 15.25 6.49167 15.175C6.34167 15.0167 6.25 14.8 6.25 14.5833C6.25 14.3667 6.34167 14.15 6.49167 13.9917C6.575 13.9167 6.65833 13.8583 6.76667 13.8167C6.91667 13.75 7.08333 13.7333 7.25 13.7667C7.3 13.775 7.35 13.7917 7.4 13.8167C7.45 13.8333 7.5 13.8583 7.55 13.8917C7.59167 13.925 7.63333 13.9583 7.675 13.9917C7.825 14.15 7.91667 14.3667 7.91667 14.5833C7.91667 14.8 7.825 15.0167 7.675 15.175C7.63333 15.2083 7.59167 15.25 7.55 15.275C7.5 15.3083 7.45 15.3333 7.4 15.35C7.35 15.375 7.3 15.3917 7.25 15.4C7.19167 15.4083 7.14167 15.4167 7.08333 15.4167Z" fill="#E4E4E7"/>
<path d="M9.99935 15.4169C9.78268 15.4169 9.56602 15.3252 9.40768 15.1752C9.25768 15.0169 9.16602 14.8002 9.16602 14.5836C9.16602 14.3669 9.25768 14.1503 9.40768 13.992C9.71602 13.6837 10.2827 13.6837 10.591 13.992C10.741 14.1503 10.8327 14.3669 10.8327 14.5836C10.8327 14.8002 10.741 15.0169 10.591 15.1752C10.4327 15.3252 10.216 15.4169 9.99935 15.4169Z" fill="#E4E4E7"/>
<path d="M12.9173 15.4169C12.7007 15.4169 12.484 15.3252 12.3257 15.1752C12.1757 15.0169 12.084 14.8002 12.084 14.5836C12.084 14.3669 12.1757 14.1503 12.3257 13.992C12.634 13.6837 13.2007 13.6837 13.509 13.992C13.659 14.1503 13.7507 14.3669 13.7507 14.5836C13.7507 14.8002 13.659 15.0169 13.509 15.1752C13.3507 15.3252 13.134 15.4169 12.9173 15.4169Z" fill="#E4E4E7"/>
</svg>
