<svg width="21" height="21" viewBox="0 0 21 21" fill="none" xmlns="http://www.w3.org/2000/svg">
<g clip-path="url(#clip0_236_17559)">
<path d="M7 6.125C7 7.05326 7.36875 7.9435 8.02513 8.59987C8.6815 9.25625 9.57174 9.625 10.5 9.625C11.4283 9.625 12.3185 9.25625 12.9749 8.59987C13.6313 7.9435 14 7.05326 14 6.125C14 5.19674 13.6313 4.3065 12.9749 3.65013C12.3185 2.99375 11.4283 2.625 10.5 2.625C9.57174 2.625 8.6815 2.99375 8.02513 3.65013C7.36875 4.3065 7 5.19674 7 6.125Z" stroke="white" stroke-width="1.5" stroke-linecap="round" stroke-linejoin="round"/>
<path d="M5.25 18.375V16.625C5.25 15.6967 5.61875 14.8065 6.27513 14.1501C6.9315 13.4937 7.82174 13.125 8.75 13.125H12.25C13.1783 13.125 14.0685 13.4937 14.7249 14.1501C15.3813 14.8065 15.75 15.6967 15.75 16.625V18.375" stroke="white" stroke-width="1.5" stroke-linecap="round" stroke-linejoin="round"/>
</g>
<defs>
<clipPath id="clip0_236_17559">
<rect width="21" height="21" fill="white"/>
</clipPath>
</defs>
</svg>
