<svg width="520" height="186" viewBox="0 0 520 186" fill="none" xmlns="http://www.w3.org/2000/svg">
<g filter="url(#filter0_b_303_6346)">
<mask id="path-1-inside-1_303_6346" fill="white">
<path fill-rule="evenodd" clip-rule="evenodd" d="M0 4C0 1.79086 1.79086 0 4 0H516C518.209 0 520 1.79086 520 4V160.831L491.654 186H4.00002C1.79088 186 0 184.209 0 182V4ZM498.912 186H503.881L520 171.688V167.275L498.912 186ZM508.084 186L520 175.42V185C520 185.552 519.552 186 519 186H508.084Z"/>
</mask>
<path fill-rule="evenodd" clip-rule="evenodd" d="M0 4C0 1.79086 1.79086 0 4 0H516C518.209 0 520 1.79086 520 4V160.831L491.654 186H4.00002C1.79088 186 0 184.209 0 182V4ZM498.912 186H503.881L520 171.688V167.275L498.912 186ZM508.084 186L520 175.42V185C520 185.552 519.552 186 519 186H508.084Z" fill="white" fill-opacity="0.08"/>
<path d="M520 160.831L520.664 161.578L521 161.28V160.831H520ZM491.654 186V187H492.034L492.318 186.748L491.654 186ZM498.912 186L498.248 185.252L496.279 187H498.912V186ZM503.881 186V187H504.261L504.545 186.748L503.881 186ZM520 171.688L520.664 172.435L521 172.137V171.688H520ZM520 167.275H521V165.05L519.336 166.528L520 167.275ZM520 175.42H521V173.194L519.336 174.672L520 175.42ZM508.084 186L507.42 185.252L505.452 187H508.084V186ZM4 -1C1.23858 -1 -1 1.23857 -1 4H1C1 2.34314 2.34314 1 4 1V-1ZM516 -1H4V1H516V-1ZM521 4C521 1.23857 518.761 -1 516 -1V1C517.657 1 519 2.34315 519 4H521ZM521 160.831V4H519V160.831H521ZM492.318 186.748L520.664 161.578L519.336 160.083L490.99 185.252L492.318 186.748ZM4.00002 187H491.654V185H4.00002V187ZM-1 182C-1 184.761 1.2386 187 4.00002 187V185C2.34316 185 1 183.657 1 182H-1ZM-1 4V182H1V4H-1ZM498.912 187H503.881V185H498.912V187ZM504.545 186.748L520.664 172.435L519.336 170.94L503.217 185.252L504.545 186.748ZM521 171.688V167.275H519V171.688H521ZM519.336 166.528L498.248 185.252L499.576 186.748L520.664 168.023L519.336 166.528ZM519.336 174.672L507.42 185.252L508.748 186.748L520.664 176.167L519.336 174.672ZM521 185V175.42H519V185H521ZM519 187C520.105 187 521 186.105 521 185H519V187ZM508.084 187H519V185H508.084V187Z" fill="url(#paint0_linear_303_6346)" mask="url(#path-1-inside-1_303_6346)"/>
</g>
<defs>
<filter id="filter0_b_303_6346" x="-50" y="-50" width="620" height="286" filterUnits="userSpaceOnUse" color-interpolation-filters="sRGB">
<feFlood flood-opacity="0" result="BackgroundImageFix"/>
<feGaussianBlur in="BackgroundImageFix" stdDeviation="25"/>
<feComposite in2="SourceAlpha" operator="in" result="effect1_backgroundBlur_303_6346"/>
<feBlend mode="normal" in="SourceGraphic" in2="effect1_backgroundBlur_303_6346" result="shape"/>
</filter>
<linearGradient id="paint0_linear_303_6346" x1="-7.56059" y1="-17.5662" x2="591.823" y2="-7.38236" gradientUnits="userSpaceOnUse">
<stop stop-color="#FFBF84"/>
<stop offset="0.0001" stop-color="#FFBF84" stop-opacity="0.31"/>
<stop offset="0.519789" stop-color="#FFBF84" stop-opacity="0"/>
<stop offset="1" stop-color="#FFBF84" stop-opacity="0.31"/>
</linearGradient>
</defs>
</svg>
