<svg width="1250" height="23" viewBox="0 0 1250 23" fill="none" xmlns="http://www.w3.org/2000/svg">
<mask id="path-1-inside-1_563_781" fill="white">
<path d="M0 0H21C24.3137 0 27 2.68629 27 6V23H6C2.68629 23 0 20.3137 0 17V0Z"/>
</mask>
<path d="M0 0H27H0ZM27 24H6C2.13401 24 -1 20.866 -1 17H1C1 19.7614 3.23858 22 6 22H27V24ZM6 24C2.13401 24 -1 20.866 -1 17V0H1V17C1 19.7614 3.23858 22 6 22V24ZM27 0V23V0Z" fill="url(#paint0_linear_563_781)" mask="url(#path-1-inside-1_563_781)"/>
<mask id="path-3-inside-2_563_781" fill="white">
<path d="M1250 0H1229C1225.69 0 1223 2.68629 1223 6V23H1244C1247.31 23 1250 20.3137 1250 17V0Z"/>
</mask>
<path d="M1250 0H1223H1250ZM1223 24H1244C1247.87 24 1251 20.866 1251 17H1249C1249 19.7614 1246.76 22 1244 22H1223V24ZM1244 24C1247.87 24 1251 20.866 1251 17V0H1249V17C1249 19.7614 1246.76 22 1244 22V24ZM1223 0V23V0Z" fill="url(#paint1_linear_563_781)" mask="url(#path-3-inside-2_563_781)"/>
<defs>
<linearGradient id="paint0_linear_563_781" x1="-42.4999" y1="34.5001" x2="-12.6415" y2="-14.834" gradientUnits="userSpaceOnUse">
<stop stop-color="#FFCB7C"/>
<stop offset="1" stop-color="#FFCB7C" stop-opacity="0"/>
</linearGradient>
<linearGradient id="paint1_linear_563_781" x1="1292.5" y1="34.5001" x2="1262.64" y2="-14.834" gradientUnits="userSpaceOnUse">
<stop stop-color="#FFCB7C"/>
<stop offset="1" stop-color="#FFCB7C" stop-opacity="0"/>
</linearGradient>
</defs>
</svg>
