<svg width="10" height="14" viewBox="0 0 10 14" fill="none" xmlns="http://www.w3.org/2000/svg">
<g clip-path="url(#clip0_563_953)">
<path d="M9.36349 7.70457C8.44766 5.32457 5.18683 5.19624 5.97433 1.73707C6.03266 1.48041 5.75849 1.28207 5.53683 1.41624C3.41933 2.66457 1.89683 5.16707 3.17433 8.44541C3.27933 8.71374 2.96433 8.96457 2.73683 8.78957C1.68099 7.99041 1.57016 6.84124 1.66349 6.01874C1.69849 5.71541 1.30183 5.56957 1.13266 5.82041C0.735996 6.42707 0.333496 7.40707 0.333496 8.88291C0.555163 12.1496 3.31433 13.1529 4.30599 13.2812C5.72349 13.4621 7.25766 13.1996 8.36016 12.1904C9.57349 11.0646 10.0168 9.26791 9.36349 7.70457ZM3.95016 10.6387C4.79016 10.4346 5.22183 9.82791 5.33849 9.29124C5.53099 8.45707 4.77849 7.64041 5.28599 6.32207C5.47849 7.41291 7.19349 8.09541 7.19349 9.28541C7.24016 10.7612 5.64183 12.0271 3.95016 10.6387Z" fill="white"/>
</g>
<defs>
<clipPath id="clip0_563_953">
<rect width="10" height="13" fill="white" transform="translate(0 0.5)"/>
</clipPath>
</defs>
</svg>
