<svg width="49" height="49" viewBox="0 0 49 49" fill="none" xmlns="http://www.w3.org/2000/svg">
<g clip-path="url(#clip0_303_9357)">
<path d="M24.5208 4.10547C26.1088 4.10557 27.6424 4.68402 28.8349 5.73268L29.1493 6.02872L30.5744 7.4538C30.9655 7.84236 31.4762 8.08764 32.0239 8.15001L32.2996 8.16634H34.3412C36.0097 8.16625 37.615 8.80451 38.8279 9.95023C40.0408 11.096 40.7695 12.6623 40.8644 14.3281L40.8746 14.6997V16.7413C40.8746 17.2926 41.0624 17.8296 41.4013 18.2583L41.5851 18.4625L43.0081 19.8876C44.1876 21.0604 44.8754 22.6389 44.9311 24.3014C44.9869 25.9638 44.4065 27.5849 43.3082 28.8341L43.0122 29.1486L41.5871 30.5736C41.1985 30.9647 40.9533 31.4755 40.8909 32.0232L40.8746 32.2988V34.3405C40.8747 36.009 40.2364 37.6143 39.0907 38.8272C37.945 40.0401 36.3786 40.7687 34.7128 40.8636L34.3412 40.8738H32.2996C31.7491 40.874 31.2147 41.0596 30.7826 41.4006L30.5784 41.5843L29.1534 43.0074C27.9805 44.1869 26.402 44.8746 24.7395 44.9304C23.0771 44.9862 21.456 44.4058 20.2068 43.3075L19.8924 43.0115L18.4673 41.5864C18.0762 41.1978 17.5654 40.9525 17.0177 40.8902L16.7421 40.8738H14.7004C13.0319 40.8739 11.4266 40.2357 10.2137 39.09C9.00078 37.9442 8.27216 36.3779 8.17727 34.7121L8.16706 34.3405V32.2988C8.16688 31.7484 7.98132 31.214 7.64031 30.7819L7.45656 30.5777L6.03352 29.1526C4.85401 27.9798 4.16626 26.4012 4.11049 24.7388C4.05472 23.0764 4.63514 21.4553 5.73339 20.2061L6.02943 19.8916L7.45452 18.4666C7.84307 18.0755 8.08836 17.5647 8.15073 17.017L8.16706 16.7413V14.6997L8.17727 14.3281C8.26843 12.7263 8.94581 11.214 10.0803 10.0796C11.2148 8.94509 12.727 8.26772 14.3288 8.17655L14.7004 8.16634H16.7421C17.2925 8.16616 17.8269 7.98061 18.259 7.63959L18.4632 7.45584L19.8883 6.0328C20.4953 5.42212 21.2171 4.93746 22.0121 4.6067C22.8072 4.27593 23.6597 4.10559 24.5208 4.10547ZM32.0689 18.9729C31.686 18.5901 31.1668 18.3751 30.6254 18.3751C30.084 18.3751 29.5648 18.5901 29.1819 18.9729L22.4587 25.6941L19.8189 23.0562L19.6269 22.8868C19.2166 22.5695 18.7008 22.4203 18.1844 22.4694C17.6681 22.5186 17.1898 22.7625 16.8467 23.1516C16.5036 23.5407 16.3215 24.0457 16.3373 24.5642C16.3532 25.0827 16.5658 25.5757 16.9319 25.9431L21.0153 30.0265L21.2072 30.1959C21.6 30.5006 22.0905 30.6516 22.5867 30.6204C23.0829 30.5892 23.5506 30.378 23.9022 30.0265L32.0689 21.8598L32.2383 21.6679C32.543 21.2751 32.6939 20.7845 32.6628 20.2884C32.6316 19.7922 32.4204 19.3244 32.0689 18.9729Z" fill="#2EC688"/>
</g>
<defs>
<clipPath id="clip0_303_9357">
<rect width="49" height="49" fill="white"/>
</clipPath>
</defs>
</svg>
