<svg width="26" height="26" viewBox="0 0 26 26" fill="none" xmlns="http://www.w3.org/2000/svg">
<g clip-path="url(#clip0_303_5808)">
<path d="M16.25 5.41699V7.58366" stroke="white" stroke-width="2" stroke-linecap="round" stroke-linejoin="round"/>
<path d="M16.25 11.917V14.0837" stroke="white" stroke-width="2" stroke-linecap="round" stroke-linejoin="round"/>
<path d="M16.25 18.417V20.5837" stroke="white" stroke-width="2" stroke-linecap="round" stroke-linejoin="round"/>
<path d="M5.41667 5.41699H20.5833C21.158 5.41699 21.7091 5.64527 22.1154 6.05159C22.5217 6.45792 22.75 7.00902 22.75 7.58366V10.8337C22.1754 10.8337 21.6243 11.0619 21.2179 11.4683C20.8116 11.8746 20.5833 12.4257 20.5833 13.0003C20.5833 13.575 20.8116 14.1261 21.2179 14.5324C21.6243 14.9387 22.1754 15.167 22.75 15.167V18.417C22.75 18.9916 22.5217 19.5427 22.1154 19.9491C21.7091 20.3554 21.158 20.5837 20.5833 20.5837H5.41667C4.84203 20.5837 4.29093 20.3554 3.8846 19.9491C3.47827 19.5427 3.25 18.9916 3.25 18.417V15.167C3.82464 15.167 4.37574 14.9387 4.78206 14.5324C5.18839 14.1261 5.41667 13.575 5.41667 13.0003C5.41667 12.4257 5.18839 11.8746 4.78206 11.4683C4.37574 11.0619 3.82464 10.8337 3.25 10.8337V7.58366C3.25 7.00902 3.47827 6.45792 3.8846 6.05159C4.29093 5.64527 4.84203 5.41699 5.41667 5.41699Z" stroke="white" stroke-width="2" stroke-linecap="round" stroke-linejoin="round"/>
</g>
<defs>
<clipPath id="clip0_303_5808">
<rect width="26" height="26" fill="white"/>
</clipPath>
</defs>
</svg>
