<svg width="20" height="20" viewBox="0 0 20 20" fill="none" xmlns="http://www.w3.org/2000/svg">
<path d="M7.71834 7.00453L7.73638 7.01765L10.0007 5.82463L12.2649 7.01765L12.283 7.00453L11.8505 4.47767L13.682 2.68852L13.675 2.66681L11.144 2.29824L10.0122 0H9.98914L8.85739 2.29824L6.32635 2.66681L6.31934 2.68852L8.15079 4.47767L7.71834 7.00453Z" fill="white"/>
<path d="M10 10.1489L3 6.53516V8.91898L10 12.5328L17 8.91898V6.53516L10 10.1489Z" fill="white"/>
<path d="M3 10.2363V12.6202L10 16.234L17 12.6202V10.2363L10 13.8501L3 10.2363Z" fill="white"/>
<path d="M3 13.9375V16.3856L10 19.9994L17 16.3856V13.9375L10 17.5513L3 13.9375Z" fill="white"/>
</svg>
