<svg width="21" height="20" viewBox="0 0 21 20" fill="none" xmlns="http://www.w3.org/2000/svg">
<g clip-path="url(#clip0_303_4878)">
<path d="M3.92444 18.0293L3.68452 17.7968L3.45128 17.5643L2.50829 16.6343L2.2717 16.4019L2.0351 16.166L1.5386 16.6642C1.19856 16.454 0.759026 16.4991 0.468972 16.7738L0.292354 16.9465L0.289386 16.9495C-0.04944 17.2889 -0.0481124 17.8378 0.292354 18.1755L1.8818 19.7465C2.22441 20.0838 2.77539 20.0838 3.11804 19.7465L3.29466 19.5705C3.46007 19.4087 3.55265 19.187 3.55125 18.956C3.55199 18.7987 3.5081 18.6444 3.42461 18.5109L3.92444 18.0293Z" fill="white"/>
<path d="M4.62121 16.8671L4.38465 16.6313L3.44498 15.7047L3.20838 15.4688L2.96847 15.2363L2.50195 15.698L2.73855 15.9305L2.97515 16.1663L3.91482 17.093L4.15137 17.3288L4.38797 17.5613L4.85781 17.0997L4.62121 16.8671Z" fill="white"/>
<path d="M19.779 16.9495L19.776 16.9465L19.5994 16.7738C19.3094 16.4991 18.8699 16.454 18.5298 16.6642L18.03 16.166L17.7934 16.4019L17.5568 16.6343L16.6138 17.5643L16.3805 17.7968L16.1406 18.0293L16.6438 18.5109C16.5603 18.6444 16.5164 18.7987 16.5171 18.956C16.5157 19.187 16.6083 19.4087 16.7737 19.5705L16.9503 19.7465C17.293 20.0838 17.8439 20.0838 18.1866 19.7465L19.776 18.1755C20.1165 17.8378 20.1178 17.2889 19.779 16.9495Z" fill="white"/>
<path d="M17.1003 15.2363L16.8604 15.4688L16.6238 15.7047L15.6841 16.6313L15.4475 16.8671L15.2109 17.0997L15.6808 17.5613L15.9173 17.3288L16.1539 17.093L17.0936 16.1663L17.3302 15.9305L17.5668 15.698L17.1003 15.2363Z" fill="white"/>
<path d="M19.7429 0.0110948C19.5589 -0.0145946 19.3888 0.113308 19.3631 0.296754C18.8686 1.80192 17.6497 2.9595 16.1175 3.37906C15.343 3.62186 14.5333 3.73412 13.7217 3.71119C13.6179 3.70426 13.5169 3.74603 13.4485 3.82411L10.4795 7.14556L13.3218 10.3541C14.2748 9.80274 15.3211 9.23142 16.5107 8.66014C20.2261 6.85328 20.0295 0.642121 20.0295 0.389703C20.0552 0.206296 19.927 0.0367454 19.7429 0.0110948Z" fill="white"/>
<path d="M7.58674 15.1045L7.18356 14.7391C7.90659 14.0716 8.66757 13.4461 9.46276 12.8658C8.73302 12.3543 7.87332 11.793 6.88367 11.2051L5.36752 12.9289L5.03432 12.5968C4.69096 12.2613 4.14143 12.2613 3.79807 12.5968L3.62146 12.7695C3.28099 13.1072 3.27966 13.6561 3.61849 13.9955L3.62146 13.9984L3.95466 14.314L3.48482 14.7756L3.72142 15.0115L3.95802 15.244L4.89769 16.1706L5.1376 16.4065L5.3742 16.639L5.84071 16.1773L6.17392 16.5094C6.51872 16.8414 7.06536 16.8414 7.41016 16.5094L7.58678 16.3334C7.92725 15.9957 7.92858 15.4468 7.58975 15.1074L7.58674 15.1045Z" fill="white"/>
<path d="M16.4907 13.991C16.8312 13.6532 16.8325 13.1043 16.4937 12.765L16.4907 12.762L16.3141 12.5893C15.9708 12.2539 15.4212 12.2539 15.0779 12.5893L14.7447 12.9215L6.62084 3.82394C6.55243 3.74586 6.45137 3.7041 6.34762 3.71103C5.53603 3.73395 4.72631 3.62166 3.95178 3.37889C2.41521 2.95774 1.19427 1.79436 0.702921 0.283277C0.673478 0.099831 0.500414 -0.0250741 0.316416 0.00427412C0.132379 0.0336223 0.00707164 0.206131 0.0365145 0.389577C0.0365145 0.641995 -0.156738 6.85315 3.5586 8.66002C9.06335 11.3338 12.0623 13.9743 12.8886 14.7383L12.5354 15.0704C12.195 15.4082 12.1937 15.9571 12.5325 16.2964L12.5354 16.2994L12.7121 16.4754C13.0569 16.8074 13.6035 16.8074 13.9483 16.4754L14.2815 16.1433L14.748 16.6049L14.9846 16.3725L15.2245 16.1366L16.1642 15.2099L16.4008 14.9774L16.6374 14.7416L16.1576 14.3065L16.4907 13.991Z" fill="white"/>
</g>
<defs>
<clipPath id="clip0_303_4878">
<rect width="21" height="20" fill="white"/>
</clipPath>
</defs>
</svg>
