<svg width="20" height="20" viewBox="0 0 20 20" fill="none" xmlns="http://www.w3.org/2000/svg">
<g clip-path="url(#clip0_303_4911)">
<mask id="mask0_303_4911" style="mask-type:luminance" maskUnits="userSpaceOnUse" x="0" y="0" width="20" height="20">
<path d="M20 0H0V20H20V0Z" fill="white"/>
</mask>
<g mask="url(#mask0_303_4911)">
<path d="M12.7738 9.70112C13.4763 8.99873 13.5232 7.91764 13.488 7.32967C12.9001 7.29447 11.8189 7.34147 11.1166 8.04385C10.6597 8.50061 10.6597 9.24432 11.1166 9.70112C11.5733 10.158 12.3171 10.158 12.7738 9.70112Z" fill="white"/>
<path d="M18.1598 0.171768C17.9308 -0.057256 17.5602 -0.057256 17.3312 0.171768C15.8706 1.63239 14.6539 1.95731 13.4769 2.27169C12.4302 2.5513 11.3478 2.8406 10.2878 3.90067C8.57436 5.61399 8.48861 8.32302 9.98779 10.1623C9.38799 9.25302 9.48799 8.01497 10.2878 7.21524C11.7358 5.76712 14.0344 6.20696 14.1316 6.22634C14.3638 6.27247 14.5451 6.45372 14.5912 6.68595C14.6106 6.7831 15.0504 9.08169 13.6023 10.5298C12.8026 11.3295 11.5645 11.4295 10.6552 10.8297C12.4945 12.3289 15.2035 12.2431 16.9169 10.5298C18.7708 8.67587 19.16 6.35181 19.16 4.72931C19.16 4.51485 19.0455 4.31782 18.8562 4.21583C18.6692 4.11313 18.4406 4.11997 18.2606 4.2345C18.1866 4.28099 18.0728 4.37282 17.9332 4.49142C17.6249 4.75114 16.9395 5.32978 16.5928 5.20145C16.6996 4.96599 17.0589 4.52255 17.3077 4.21548C18.1796 3.13794 19.4983 1.51024 18.1598 0.171768Z" fill="white"/>
<path d="M6.14497 11.3589L9.45954 14.6735C9.91723 15.1311 10.6591 15.1311 11.1168 14.6735C11.5744 14.2158 11.5744 13.4739 11.1168 13.0162L7.80227 9.70161C7.34458 9.24399 6.60266 9.24399 6.14497 9.70161C5.68735 10.1593 5.68735 10.9012 6.14497 11.3589Z" fill="white"/>
<path d="M1.01146 18.1709L2.66877 19.8282C2.88763 20.0471 3.23924 20.058 3.47115 19.8529L8.49619 15.3671L5.45041 12.3213L0.986775 17.3686C0.781658 17.6005 0.792595 17.9521 1.01146 18.1709Z" fill="white"/>
</g>
</g>
<defs>
<clipPath id="clip0_303_4911">
<rect width="20" height="20" fill="white"/>
</clipPath>
</defs>
</svg>
