<svg width="20" height="20" viewBox="0 0 20 20" fill="none" xmlns="http://www.w3.org/2000/svg">
<g clip-path="url(#clip0_303_4865)">
<path d="M19.0175 7.62995L12.37 0.982456C11.0602 -0.327388 8.93997 -0.327583 7.62997 0.982456L6.29833 2.3141C6.18391 2.42851 6.18391 2.61398 6.29833 2.72839C6.4127 2.84281 6.59821 2.84281 6.71262 2.72839L8.04426 1.39675C9.12512 0.315894 10.8748 0.315737 11.9558 1.39675L18.6033 8.04425C19.6842 9.12515 19.6843 10.8748 18.6033 11.9558L11.9558 18.6032C10.8749 19.6841 9.12528 19.6842 8.04426 18.6032L1.39677 11.9558C0.315869 10.8749 0.315752 9.12527 1.39677 8.04425L5.88403 3.55695C5.99845 3.44253 5.99845 3.25707 5.88403 3.14265C5.76966 3.02824 5.58415 3.02824 5.46973 3.14265L0.98247 7.62995C-0.327412 8.93984 -0.327568 11.06 0.98247 12.37L7.62997 19.0175C8.93985 20.3274 11.06 20.3276 12.37 19.0175L19.0175 12.37C20.3274 11.0601 20.3276 8.93999 19.0175 7.62995Z" fill="white"/>
<path d="M13.8801 15.2978L17.9128 11.265C18.6112 10.5667 18.6113 9.43291 17.9128 8.73444L11.2654 2.08702C10.5661 1.38772 9.43424 1.3876 8.73479 2.08702L2.08729 8.73448C1.38889 9.43287 1.38885 10.5666 2.08729 11.2651L8.73479 17.9126C9.43409 18.6118 10.5659 18.6119 11.2654 17.9126L13.0515 16.1264C13.1659 16.0121 13.1659 15.8265 13.0515 15.7121C12.9371 15.5978 12.7516 15.5978 12.6372 15.7121L10.8511 17.4983C10.3807 17.9686 9.61951 17.9687 9.14909 17.4983L2.50159 10.8508C2.03213 10.3813 2.03217 9.61823 2.50159 9.14877L9.14909 2.50127C9.61944 2.03096 10.3807 2.03088 10.8511 2.50127L17.4986 9.14873C17.968 9.61823 17.968 10.3813 17.4985 10.8507L13.4658 14.8835C13.3513 14.9979 13.3513 15.1834 13.4658 15.2978C13.5802 15.4122 13.7657 15.4122 13.8801 15.2978Z" fill="white"/>
<path d="M10.9169 8.65773C10.9744 8.81008 11.1439 8.88519 11.2944 8.8284C11.4457 8.77129 11.5222 8.60223 11.465 8.4509L10.6999 6.42348C10.6989 6.42074 10.6978 6.41805 10.6967 6.41535C10.6441 6.28758 10.5209 6.20508 10.3827 6.20508C10.3826 6.20508 10.3829 6.20508 10.3827 6.20508C10.2444 6.20523 10.1208 6.28809 10.0684 6.41609C10.0675 6.41828 10.0667 6.42051 10.0658 6.4227L9.29368 8.45C9.2361 8.60121 9.31196 8.77043 9.46317 8.82801C9.61438 8.88559 9.7836 8.80969 9.84118 8.65852L9.96161 8.3423H10.7978L10.9169 8.65773ZM10.1848 7.75648L10.3817 7.23961L10.5768 7.75648H10.1848Z" fill="white"/>
<path d="M7.3425 8.60951L7.68813 7.49284L8.03219 8.60975C8.07485 8.74842 8.2059 8.84733 8.35586 8.84733H8.35817C8.52051 8.84623 8.65731 8.72936 8.68715 8.5801L9.08938 6.55909C9.12094 6.40041 9.01793 6.24619 8.85922 6.21459C8.70051 6.18299 8.54629 6.28604 8.51473 6.44471L8.30418 7.50264L7.96813 6.41186C7.92051 6.25725 7.75649 6.17049 7.60192 6.21815C7.49789 6.25018 7.42485 6.33494 7.4025 6.43401L7.07164 7.50287L6.86164 6.44127C6.83024 6.28256 6.67598 6.17936 6.51742 6.21073C6.35871 6.24213 6.25547 6.39623 6.28688 6.55494L6.6875 8.58034C6.71649 8.72741 6.85309 8.84733 7.0186 8.84733H7.02102C7.17242 8.84623 7.30063 8.74541 7.3425 8.60951Z" fill="white"/>
<path d="M13.6197 8.77418C13.7411 8.6673 13.7529 8.48219 13.6461 8.36074L13.1597 7.80812C13.486 7.69102 13.7191 7.3875 13.7191 7.03242C13.7191 6.57621 13.3344 6.20508 12.8615 6.20508H12.3151C12.1533 6.20508 12.0215 6.33625 12.0215 6.49801V8.5543C12.0215 8.71609 12.1527 8.84723 12.3144 8.84723C12.4762 8.84723 12.6073 8.71605 12.6073 8.5543V8.06738L13.2062 8.74781C13.3132 8.86941 13.4984 8.88094 13.6197 8.77418ZM12.8615 6.79098C13.0087 6.79098 13.1332 6.90156 13.1332 7.03242C13.1332 7.16332 13.0088 7.27391 12.8615 7.27391C12.8019 7.27391 12.7055 7.27426 12.6102 7.27473C12.6089 7.02086 12.6097 7.09516 12.6089 6.79102L12.8615 6.79098Z" fill="white"/>
<path d="M10.8907 12.7007C11.0525 12.7007 11.1836 12.5696 11.1836 12.4078V11.2951L12.0375 12.5316C12.1221 12.6539 12.2639 12.7057 12.3987 12.6636C12.5359 12.6207 12.6245 12.4931 12.6245 12.3357L12.6053 10.3487C12.6037 10.1879 12.4729 10.0586 12.3124 10.0586H12.3095C12.1477 10.0602 12.0179 10.1926 12.0194 10.3543L12.0304 11.4903L11.1317 10.1889C11.0588 10.0834 10.9258 10.0376 10.8034 10.0757C10.681 10.1139 10.5977 10.2272 10.5977 10.3554V12.4078C10.5977 12.5696 10.7289 12.7007 10.8907 12.7007Z" fill="white"/>
<path d="M13.5546 12.7014H14.4132C14.575 12.7014 14.7061 12.5702 14.7061 12.4085C14.7061 12.2467 14.5749 12.1155 14.4132 12.1155H13.8476V11.6827H14.3499C14.5117 11.6827 14.6428 11.5515 14.6428 11.3898C14.6428 11.228 14.5116 11.0968 14.3499 11.0968H13.8476V10.664H14.4132C14.575 10.664 14.7061 10.5328 14.7061 10.3711C14.7061 10.2093 14.5749 10.0781 14.4132 10.0781H13.5546C13.3929 10.0781 13.2617 10.2093 13.2617 10.3711V12.4086C13.2617 12.5702 13.3929 12.7014 13.5546 12.7014Z" fill="white"/>
<path d="M5.58628 12.7007H6.95804C7.11983 12.7007 7.25096 12.5695 7.25096 12.4078C7.25096 12.246 7.11979 12.1148 6.95804 12.1148H6.12679L7.17151 10.5114C7.29835 10.3168 7.15831 10.0586 6.92608 10.0586H5.62843C5.46663 10.0586 5.3355 10.1898 5.3355 10.3515C5.3355 10.5133 5.46667 10.6445 5.62843 10.6445H6.38554L5.34081 12.2479C5.21405 12.4425 5.35405 12.7007 5.58628 12.7007Z" fill="white"/>
<path d="M8.75859 12.7008C9.48703 12.7008 10.0797 12.1081 10.0797 11.3797C10.0797 10.6513 9.48703 10.0586 8.75859 10.0586C8.03016 10.0586 7.4375 10.6513 7.4375 11.3797C7.4375 12.1081 8.03016 12.7008 8.75859 12.7008ZM8.75859 10.6445C9.16398 10.6445 9.49379 10.9743 9.49379 11.3797C9.49379 11.7851 9.16398 12.1149 8.75859 12.1149C8.3532 12.1149 8.0234 11.7851 8.0234 11.3797C8.0234 10.9743 8.3532 10.6445 8.75859 10.6445Z" fill="white"/>
</g>
<defs>
<clipPath id="clip0_303_4865">
<rect width="20" height="20" fill="white"/>
</clipPath>
</defs>
</svg>
