<svg width="20" height="20" viewBox="0 0 20 20" fill="none" xmlns="http://www.w3.org/2000/svg">
<g clip-path="url(#clip0_303_4842)">
<path d="M10.6899 4.48242H9.31062C7.89959 4.48242 6.68545 5.33518 6.15234 6.55139H13.8486C13.3151 5.33518 12.101 4.48242 10.6899 4.48242Z" fill="white"/>
<path d="M13.4483 12.2297C13.4483 12.3201 13.4425 12.4094 13.4352 12.4983C13.7152 12.259 13.9276 11.9545 14.0449 11.6028C14.1066 11.4176 14.138 11.2249 14.138 11.0294V8.62109H14.0418L14.0193 8.68834C13.8704 9.13489 13.6093 9.52627 13.29 9.80109C13.3887 9.95971 13.4483 10.1449 13.4483 10.3452V11.7245V12.2297Z" fill="white"/>
<path d="M12.4134 12.7595H10.9585C10.6416 12.7595 10.3665 12.5447 10.2896 12.2368L10.0937 11.4533C10.0723 11.3671 9.92786 11.3671 9.90613 11.4533L9.71027 12.2368C9.63303 12.5447 9.35786 12.7595 9.04062 12.7595H7.58579C7.48096 12.7595 7.38165 12.7392 7.28613 12.7102C7.38131 13.2213 7.62613 13.6919 8.00199 14.0675C8.49268 14.5582 9.14544 14.8285 9.83958 14.8285H10.1599C10.8541 14.8285 11.5065 14.5582 11.9975 14.0675C12.373 13.6916 12.6182 13.2213 12.7134 12.7102C12.6175 12.7392 12.5182 12.7595 12.4134 12.7595Z" fill="white"/>
<path d="M10.6025 17.2823L11.6456 18.1171L12.5363 16.7809L11.7763 16.5781L10.6025 17.2823Z" fill="white"/>
<path d="M8.35358 18.1171L9.39668 17.2823L8.22289 16.5781L7.46289 16.7809L8.35358 18.1171Z" fill="white"/>
<path d="M5.8623 7.93184H14.1382C14.1382 7.69564 14.114 7.46495 14.0685 7.24219H5.93196C5.88644 7.46495 5.8623 7.69564 5.8623 7.93184Z" fill="white"/>
<path d="M1.03448 0H0.344828C0.154828 0 0 0.154828 0 0.344828V0.689655H1.37931V0.344828C1.37931 0.154828 1.22448 0 1.03448 0Z" fill="white"/>
<path d="M0 2.75781H1.37931V19.9992H0V2.75781Z" fill="white"/>
<path d="M0 1.37891H1.37931V2.06856H0V1.37891Z" fill="white"/>
<path d="M14.882 17.4067L13.2402 16.9688L11.8023 19.1256L10.3447 17.9598V20.0007H13.793V19.6112C13.793 19.3843 13.8209 19.157 13.8761 18.9363C14.0299 18.3212 14.3878 17.786 14.882 17.4067Z" fill="white"/>
<path d="M12.7585 10.3448C12.7585 10.1548 12.6036 10 12.4136 10H7.58604C7.39604 10 7.24121 10.1548 7.24121 10.3448V11.7241C7.24121 11.9145 7.39604 12.069 7.58604 12.069H9.04087L9.23673 11.2855C9.32431 10.9348 9.63811 10.6897 9.99983 10.6897C10.3616 10.6897 10.6753 10.9345 10.7629 11.2855L10.9588 12.069H12.4136C12.6036 12.069 12.7585 11.9145 12.7585 11.7241V10.3448Z" fill="white"/>
<path d="M18.6211 0.0351562V9.3355C19.158 9.41274 19.638 9.66688 20.0004 10.0369V1.72447C20.0004 0.891708 19.407 0.195156 18.6211 0.0351562Z" fill="white"/>
<path d="M11.3791 15.2832C10.9963 15.436 10.5846 15.5177 10.1598 15.5177H9.83943C9.41494 15.5177 9.00322 15.436 8.62012 15.2832V16.0118L9.99943 16.8394L11.3787 16.0118L11.3791 15.2832Z" fill="white"/>
<path d="M18.2762 9.9996H17.9314V2.71684C17.329 3.04339 16.2321 3.44787 14.4831 3.44787C12.6449 3.44787 11.2928 2.88787 9.9852 2.34649C8.78416 1.84891 7.64968 1.37891 6.20727 1.37891C3.74727 1.37891 2.42451 2.28649 2.06934 2.57166V13.4534C2.70003 13.0603 3.85106 12.5334 5.60175 12.4313C5.47899 12.241 5.37416 12.0386 5.30106 11.8199C5.21658 11.5665 5.17313 11.3017 5.17278 11.0341V7.93063C5.17278 5.64891 7.02899 3.7927 9.31072 3.7927H10.69C12.9717 3.7927 14.828 5.64891 14.828 7.93063V11.0341C14.8276 11.3017 14.7842 11.5665 14.6993 11.8199C14.5238 12.3461 14.1966 12.8003 13.7528 13.1334L13.1555 13.5813C13.0531 13.8082 12.9242 14.023 12.7707 14.223C13.4814 14.3961 14.148 14.4824 14.828 14.4824C17.3283 14.4824 20.0004 13.7575 20.0004 11.7237C20.0004 10.773 19.2269 9.9996 18.2762 9.9996Z" fill="white"/>
<path d="M15.8297 17.6579L15.8093 17.6523L15.6397 17.7372C15.0924 18.0106 14.6931 18.5079 14.5448 19.1017C14.5035 19.2679 14.4824 19.4389 14.4824 19.6096V19.9992H17.241V19.4951C17.241 19.2013 17.1717 18.9075 17.0404 18.6448C16.7969 18.1579 16.3555 17.7982 15.8297 17.6579Z" fill="white"/>
<path d="M13.3069 8.62109H6.69238C6.82583 8.93247 7.03756 9.2042 7.27066 9.36489C7.37066 9.33282 7.47549 9.31075 7.58583 9.31075H12.4134C12.5238 9.31075 12.6286 9.33282 12.7282 9.36489C12.9617 9.2042 13.1731 8.93247 13.3069 8.62109Z" fill="white"/>
<path d="M5.8623 11.0294C5.8623 11.2245 5.89368 11.4176 5.95541 11.6025C6.07265 11.9542 6.28506 12.259 6.56506 12.498C6.55782 12.4094 6.55196 12.3201 6.55196 12.2297V11.7245V10.3452C6.55196 10.1449 6.61161 9.95971 6.71058 9.80109C6.39093 9.52627 6.12989 9.13489 5.98127 8.68834L5.95851 8.62109H5.8623V11.0294Z" fill="white"/>
<path d="M4.36017 17.7372L4.19051 17.6523L4.17051 17.6579C3.64465 17.7982 3.20327 18.1579 2.95982 18.6448C2.8281 18.9075 2.75879 19.2017 2.75879 19.4951V19.9992H5.51741V19.6096C5.51741 19.4389 5.49638 19.2679 5.455 19.1017C5.30638 18.5082 4.90741 18.0106 4.36017 17.7372Z" fill="white"/>
<path d="M6.75989 16.9688L5.11816 17.4067C5.6123 17.786 5.97023 18.3212 6.12403 18.9363C6.1792 19.157 6.20713 19.3843 6.20713 19.6112V20.0007H9.65541V17.9598L8.19782 19.1256L6.75989 16.9688Z" fill="white"/>
</g>
<defs>
<clipPath id="clip0_303_4842">
<rect width="20" height="20" fill="white"/>
</clipPath>
</defs>
</svg>
