<svg width="20" height="21" viewBox="0 0 20 21" fill="none" xmlns="http://www.w3.org/2000/svg">
<path d="M19.6686 0.69112L19.2052 0.233557C19.1641 0.193094 19.1143 0.162195 19.0595 0.143105C19.0047 0.124016 18.9463 0.117217 18.8886 0.123201C18.8308 0.129185 18.7751 0.147803 18.7255 0.177701C18.676 0.207599 18.6338 0.248026 18.602 0.296045L18.3056 0.743775L18.0919 0.532742C18.0501 0.491495 17.9935 0.468325 17.9344 0.468329C17.8753 0.468333 17.8187 0.491511 17.7769 0.532763C17.7351 0.574016 17.7117 0.629964 17.7117 0.6883C17.7117 0.746636 17.7352 0.80258 17.7769 0.843827L18.0322 1.09588L17.7531 1.37146L16.9723 0.600493C16.9306 0.559251 16.8739 0.536082 16.8149 0.536082C16.7558 0.536082 16.6991 0.559251 16.6574 0.600493L16.0938 1.157C16.0665 1.18392 16.0467 1.21738 16.0365 1.2541C16.0262 1.29081 16.0258 1.32953 16.0353 1.36646L16.2597 2.24273C16.1834 2.22998 16.1051 2.23551 16.0314 2.25886C15.9577 2.28221 15.8908 2.3227 15.8362 2.37691L12.3018 5.86703L11.6946 6.17416C11.6633 6.18999 11.6363 6.2129 11.6157 6.241C11.5952 6.2691 11.5816 6.30161 11.5761 6.33588C11.5707 6.37014 11.5735 6.40519 11.5844 6.43816C11.5953 6.47114 11.6139 6.50111 11.6388 6.52563L11.7148 6.60074L11.4845 6.82841L10.7909 6.14312C10.5941 5.94848 10.3315 5.8324 10.0534 5.81714C9.77525 5.80188 9.50123 5.88851 9.28381 6.06042L5.76652 8.83635C5.23356 9.25685 5.44039 9.89389 5.64039 10.51C5.88027 11.2489 6.07549 11.9274 5.47076 12.4672C5.44833 12.4872 5.43026 12.5115 5.41764 12.5386C5.40502 12.5657 5.39812 12.5951 5.39734 12.6249C5.39657 12.6547 5.40195 12.6844 5.41315 12.7121C5.42434 12.7398 5.44113 12.765 5.46249 12.7861L5.69258 13.0133L5.22796 13.4721L5.14937 13.3945C5.10757 13.3532 5.05089 13.33 4.9918 13.33C4.9327 13.3301 4.87603 13.3532 4.83425 13.3945L4.29555 13.9268C4.17817 13.8876 4.05205 13.8814 3.93131 13.9089C3.81056 13.9364 3.69993 13.9965 3.61178 14.0825L0.648205 17.0093C0.60645 17.0506 0.582999 17.1065 0.583008 17.1649C0.583016 17.2232 0.606483 17.2792 0.64825 17.3204L3.41983 20.0568C3.44497 20.0815 3.47575 20.1 3.50961 20.1107C3.54346 20.1214 3.5794 20.1239 3.61443 20.118C3.64947 20.1122 3.68258 20.0981 3.711 20.0771C3.73943 20.056 3.76235 20.0286 3.77785 19.997L5.91361 15.6378C5.93376 15.5967 5.94044 15.5504 5.93273 15.5053C5.92502 15.4603 5.9033 15.4187 5.87059 15.3864L5.78747 15.3044L6.27786 14.8198C6.3196 14.7785 6.34304 14.7226 6.34302 14.6643C6.34301 14.606 6.31954 14.55 6.27777 14.5088L6.19917 14.4312L6.66382 13.9724L7.02757 14.3315C7.06934 14.3728 7.12597 14.3959 7.18503 14.396C7.24409 14.396 7.30074 14.3728 7.34252 14.3316C7.34252 14.3316 7.73965 13.9398 7.86809 13.8127C7.93158 13.821 7.99008 13.8511 8.0332 13.8979C8.3021 14.163 8.91781 16.5521 9.18383 16.8153C9.77944 17.4035 11.5919 16.8713 11.282 15.9399C11.1017 15.3992 10.7483 14.4117 10.3383 13.646L12.2993 11.7096C12.3556 11.7634 12.4123 11.8166 12.4696 11.8691L12.3348 12.0782C12.3191 12.1026 12.3084 12.1298 12.3033 12.1583C12.2983 12.1867 12.2989 12.2159 12.3053 12.2441C12.3116 12.2723 12.3235 12.299 12.3403 12.3226C12.3571 12.3463 12.3785 12.3664 12.4032 12.3819C12.4278 12.3974 12.4554 12.408 12.4842 12.413C12.513 12.418 12.5425 12.4173 12.5711 12.4111C12.6288 12.3984 12.679 12.3636 12.7107 12.3144L12.8069 12.1652C13.7691 12.9686 14.8534 13.6175 16.0199 14.088C16.0689 14.108 16.1236 14.1101 16.174 14.0939C16.2245 14.0777 16.2674 14.0443 16.2951 13.9996L17.3826 12.2456C17.3996 12.2183 17.4103 12.1876 17.4139 12.1557C17.4176 12.1238 17.4142 12.0915 17.4038 12.061C17.3935 12.0306 17.3766 12.0028 17.3543 11.9795C17.3319 11.9562 17.3046 11.938 17.2744 11.9262C17.2577 11.9197 15.6328 11.2778 14.1912 10.0184L14.2989 9.8514C14.3305 9.8022 14.3411 9.74262 14.3283 9.68573C14.3154 9.62885 14.2803 9.57931 14.2305 9.54799C14.1808 9.51668 14.1204 9.50614 14.0628 9.5187C14.0052 9.53126 13.9549 9.56589 13.9232 9.61498L13.8597 9.71338C13.5473 9.41354 13.2615 9.08778 13.0055 8.73967L13.0554 8.69038C13.0972 8.64912 13.1206 8.59317 13.1206 8.53483C13.1206 8.47649 13.0972 8.42053 13.0554 8.37928L12.9278 8.25326L13.1583 8.02566L13.2346 8.10101C13.2595 8.12548 13.2898 8.14381 13.3232 8.15451C13.3566 8.1652 13.3921 8.16796 13.4267 8.16255C13.4614 8.15714 13.4943 8.14373 13.5227 8.1234C13.5511 8.10307 13.5743 8.07639 13.5903 8.04555L13.9009 7.44634L17.4352 3.95588C17.4805 3.91126 17.5165 3.85825 17.541 3.7999C17.5655 3.74154 17.5781 3.67899 17.5781 3.61581C17.5781 3.55263 17.5655 3.49007 17.541 3.43171C17.5165 3.37335 17.4806 3.32034 17.4353 3.27571L17.3934 3.2344L18.7958 1.84994L18.9878 2.03954C19.0296 2.08071 19.0862 2.10383 19.1453 2.1038C19.2043 2.10376 19.2609 2.08059 19.3027 2.03937C19.3444 1.99814 19.3679 1.94224 19.3679 1.88394C19.368 1.82564 19.3446 1.76972 19.3029 1.72845L19.1524 1.57987L19.6054 1.28745C19.6542 1.25609 19.6952 1.21439 19.7256 1.16537C19.756 1.11636 19.7748 1.06128 19.7809 1.00414C19.7869 0.946996 19.78 0.889244 19.7606 0.835092C19.7411 0.780939 19.7097 0.731753 19.6686 0.69112ZM3.34526 16.8539L2.53485 17.6541C2.52244 17.6664 2.5077 17.6761 2.49149 17.6827C2.47527 17.6894 2.45789 17.6928 2.44034 17.6928C2.42278 17.6928 2.4054 17.6894 2.38919 17.6827C2.37297 17.6761 2.35824 17.6664 2.34583 17.6541C2.33342 17.6419 2.32358 17.6273 2.31686 17.6113C2.31015 17.5953 2.30669 17.5781 2.3067 17.5608C2.3067 17.5435 2.31016 17.5263 2.31688 17.5103C2.32359 17.4943 2.33344 17.4797 2.34585 17.4675L3.15626 16.6672C3.18133 16.6425 3.21533 16.6286 3.25077 16.6286C3.28622 16.6286 3.32022 16.6425 3.34528 16.6673C3.37034 16.692 3.38442 16.7256 3.38441 16.7606C3.38441 16.7956 3.37033 16.8292 3.34526 16.8539ZM14.0068 10.9058C14.0206 10.9159 15.3973 11.9148 16.3739 12.2875C16.5372 12.3498 16.4442 12.597 16.2775 12.5337C15.2673 12.1481 13.9056 11.1601 13.8481 11.1182C13.7058 11.0146 13.8644 10.8021 14.0068 10.9058ZM13.6807 11.5539C13.6945 11.5639 15.0712 12.5627 16.0476 12.935C16.2109 12.9973 16.1184 13.2451 15.9514 13.1813C14.9412 12.7961 13.5795 11.8081 13.522 11.7663C13.3796 11.6625 13.5385 11.4503 13.6807 11.5539ZM7.19042 9.40499L9.59441 7.03159C9.63049 6.99592 9.67334 6.96763 9.72051 6.94832C9.76767 6.92902 9.81823 6.91908 9.86929 6.91908C9.92034 6.91908 9.9709 6.92902 10.0181 6.94832C10.0652 6.96763 10.1081 6.99592 10.1442 7.03159L10.1553 7.04259C10.1914 7.07822 10.2201 7.12053 10.2396 7.16711C10.2592 7.21368 10.2692 7.26361 10.2692 7.31402C10.2692 7.36444 10.2592 7.41437 10.2396 7.46094C10.2201 7.50751 10.1914 7.54983 10.1553 7.58546L7.75177 9.95931C7.6788 10.0313 7.57985 10.0718 7.47667 10.0718C7.37348 10.0718 7.27453 10.0313 7.20156 9.95931L7.19042 9.94831C7.11746 9.87626 7.07648 9.77854 7.07647 9.67665C7.07647 9.57476 7.11746 9.47705 7.19042 9.40499ZM7.61846 11.8511C7.65145 11.9263 7.65687 12.0106 7.63374 12.0893C7.61061 12.168 7.5604 12.2363 7.49177 12.2824C7.42313 12.3284 7.34037 12.3494 7.25774 12.3417C7.17511 12.334 7.09779 12.2981 7.0391 12.2402C6.98042 12.1822 6.94404 12.1059 6.93623 12.0243C6.92843 11.9427 6.94969 11.861 6.99636 11.7932C7.04302 11.7254 7.11216 11.6758 7.19187 11.653C7.27158 11.6301 7.35686 11.6355 7.43302 11.668C7.44486 11.6507 8.16329 10.9443 9.47542 9.64778C9.60056 9.5242 9.78936 9.71108 9.66441 9.8344C7.37235 12.0962 7.63589 11.8395 7.61846 11.8511ZM10.383 12.9798L9.54725 12.1549L9.63208 12.0711C9.79928 12.1855 9.99695 12.2485 10.2003 12.2523C10.3048 12.2521 10.4085 12.2343 10.5069 12.1998C10.5627 12.1805 10.6084 12.1402 10.634 12.0876C10.6597 12.035 10.6631 11.9746 10.6436 11.9195C10.624 11.8644 10.5832 11.8193 10.5299 11.794C10.4767 11.7687 10.4155 11.7653 10.3597 11.7846C10.2937 11.8065 10.2239 11.8147 10.1545 11.8089C10.0852 11.8031 10.0178 11.7833 9.95647 11.7508L11.2301 10.493C11.4597 10.8118 11.7124 11.1139 11.986 11.3969L10.383 12.9798ZM13.333 7.57639L12.1874 6.44478L12.1702 6.42787L12.3917 6.31583L13.4464 7.3576L13.333 7.57639ZM16.5142 3.47329L15.763 4.21496L16.0814 4.52946C16.2068 4.65341 16.0156 4.83791 15.8923 4.716L15.574 4.40158L14.5143 5.44791L14.8327 5.76248C14.9578 5.88607 14.7686 6.07248 14.6436 5.94902L14.3253 5.63453L13.8244 6.12907C13.6992 6.2526 13.5105 6.06575 13.6354 5.94241L14.1363 5.44783L13.8101 5.12553C13.685 5.00206 13.8741 4.81545 13.9991 4.93891L14.3253 5.26122L15.3851 4.21488L15.0588 3.89253C14.9337 3.76906 15.1227 3.58245 15.2478 3.70591L15.5741 4.02826L16.3252 3.28663C16.4502 3.1633 16.6393 3.34976 16.5142 3.47329Z" fill="white"/>
</svg>
