<svg width="30" height="31" viewBox="0 0 30 31" fill="none" xmlns="http://www.w3.org/2000/svg">
<path d="M5.07615 20.9339C4.02971 16.7481 3.50649 14.6553 4.60523 13.2481C5.70397 11.8408 7.86126 11.8408 12.1758 11.8408H17.8239C22.1384 11.8408 24.2957 11.8408 25.3944 13.2481C26.4932 14.6553 25.97 16.7481 24.9236 20.9339C24.258 23.5961 23.9251 24.9272 22.9327 25.7022C21.9401 26.4772 20.5681 26.4772 17.8239 26.4772H12.1758C9.43168 26.4772 8.05961 26.4772 7.06704 25.7022C6.07448 24.9272 5.7417 23.5961 5.07615 20.9339Z" stroke="white" stroke-width="1.5"/>
<path opacity="0.5" d="M24.1475 12.451L23.281 9.27327C22.947 8.04796 22.7799 7.43531 22.4372 6.97391C22.096 6.51441 21.6322 6.16023 21.0992 5.95188C20.5639 5.74268 19.9289 5.74268 18.6589 5.74268M5.85205 12.451L6.71852 9.27327C7.05262 8.04796 7.21967 7.43531 7.56232 6.97391C7.90357 6.51441 8.36726 6.16023 8.90034 5.95188C9.43562 5.74268 10.0706 5.74268 11.3407 5.74268" stroke="white" stroke-width="1.5"/>
<path d="M11.3403 5.74265C11.3403 5.06903 11.8864 4.52295 12.56 4.52295H17.4388C18.1125 4.52295 18.6585 5.06903 18.6585 5.74265C18.6585 6.41626 18.1125 6.96234 17.4388 6.96234H12.56C11.8864 6.96234 11.3403 6.41626 11.3403 5.74265Z" stroke="white" stroke-width="1.5"/>
<path opacity="0.5" d="M10.1211 16.7197V21.5985" stroke="white" stroke-width="1.5" stroke-linecap="round" stroke-linejoin="round"/>
<path opacity="0.5" d="M19.8784 16.7197V21.5985" stroke="white" stroke-width="1.5" stroke-linecap="round" stroke-linejoin="round"/>
<path opacity="0.5" d="M14.9995 16.7197V21.5985" stroke="white" stroke-width="1.5" stroke-linecap="round" stroke-linejoin="round"/>
</svg>
