<svg width="32" height="32" viewBox="0 0 32 32" fill="none" xmlns="http://www.w3.org/2000/svg">
<g clip-path="url(#clip0_652_1694)">
<mask id="mask0_652_1694" style="mask-type:luminance" maskUnits="userSpaceOnUse" x="0" y="0" width="32" height="32">
<path d="M31.8851 0.37793H0.344482V31.8718H31.8851V0.37793Z" fill="white"/>
</mask>
<g mask="url(#mask0_652_1694)">
<path d="M16.1147 10.3428C15.6044 10.3428 15.1907 9.92966 15.1907 9.4201V4.9913C15.1907 2.44748 17.2633 0.37793 19.8109 0.37793H30.961C31.4713 0.37793 31.885 0.791042 31.885 1.3006C31.885 1.81016 31.4713 2.22327 30.961 2.22327H19.8109C18.2823 2.22327 17.0387 3.465 17.0387 4.9913V9.4201C17.0387 9.92966 16.625 10.3428 16.1147 10.3428Z" fill="#27E4A6"/>
<path d="M30.961 0.37793H19.8109C18.3011 0.37793 16.9584 1.10487 16.1147 2.22647V10.3428C16.625 10.3428 17.0388 9.92966 17.0388 9.4201V4.9913C17.0388 3.465 18.2824 2.22327 19.8109 2.22327H30.961C31.4713 2.22327 31.8851 1.81016 31.8851 1.3006C31.8851 0.791042 31.4713 0.37793 30.961 0.37793Z" fill="#00B67A"/>
<path d="M27.3135 31.8714C25.4299 31.8714 23.7133 30.6907 23.0421 28.9333L21.603 25.1656L17.9529 22.932H14.2767L10.6267 25.1656L9.18762 28.9333C8.51637 30.6907 6.7998 31.8714 4.91608 31.8714C2.3953 31.8714 0.344482 29.8242 0.344482 27.3079V15.1636C0.344482 13.0794 1.09431 11.0668 2.4558 9.49646C3.841 7.89877 5.7396 6.90391 7.80177 6.69523C10.0172 6.47136 12.1607 7.10963 13.8769 8.49709H18.3528C20.069 7.10963 22.2122 6.47102 24.4279 6.69536C26.49 6.90399 28.3886 7.89907 29.774 9.49738C31.1354 11.0681 31.8852 13.081 31.8852 15.1652V27.3066C31.8851 29.8237 29.8344 31.8714 27.3135 31.8714Z" fill="#7668CB"/>
<path d="M29.7738 9.49738C28.3885 7.89907 26.4899 6.90391 24.4278 6.69536C22.2121 6.47102 20.0688 7.10963 18.3526 8.49709H16.1147V22.932H17.9528L21.6029 25.1656L23.042 28.9333C23.7132 30.6907 25.4298 31.8714 27.3135 31.8714C29.8342 31.8714 31.8851 29.8237 31.8851 27.3066V15.1652C31.8851 13.081 31.1353 11.0681 29.7738 9.49738Z" fill="#38336B"/>
<path d="M16.1147 18.3397C15.6044 18.3397 15.1907 17.9266 15.1907 17.4171V13.7264C15.1907 13.2168 15.6044 12.8037 16.1147 12.8037C16.625 12.8037 17.0387 13.2168 17.0387 13.7264V17.4171C17.0387 17.9266 16.625 18.3397 16.1147 18.3397Z" fill="#38336B"/>
<path d="M28.1583 15.8786H26.9262C26.4159 15.8786 26.0022 15.4654 26.0022 14.9559C26.0022 14.4463 26.4159 14.0332 26.9262 14.0332H28.1583C28.6686 14.0332 29.0823 14.4463 29.0823 14.9559C29.0823 15.4654 28.6686 15.8786 28.1583 15.8786Z" fill="#00B67A"/>
<path d="M21.9979 15.8786H20.7659C20.2556 15.8786 19.8418 15.4654 19.8418 14.9559C19.8418 14.4463 20.2556 14.0332 20.7659 14.0332H21.9979C22.5082 14.0332 22.9219 14.4463 22.9219 14.9559C22.9219 15.4654 22.5082 15.8786 21.9979 15.8786Z" fill="#00B67A"/>
<path d="M24.4619 13.4184C23.9516 13.4184 23.5378 13.0052 23.5378 12.4957V11.2654C23.5378 10.7559 23.9516 10.3428 24.4619 10.3428C24.9722 10.3428 25.3859 10.7559 25.3859 11.2654V12.4957C25.3859 13.0052 24.9722 13.4184 24.4619 13.4184Z" fill="#00B67A"/>
<path d="M24.4619 19.5697C23.9516 19.5697 23.5378 19.1566 23.5378 18.647V17.4168C23.5378 16.9072 23.9516 16.4941 24.4619 16.4941C24.9722 16.4941 25.3859 16.9072 25.3859 17.4168V18.647C25.3859 19.1566 24.9722 19.5697 24.4619 19.5697Z" fill="#00B67A"/>
<path d="M5.30354 15.8786H4.0715C3.56119 15.8786 3.14746 15.4654 3.14746 14.9559C3.14746 14.4463 3.56119 14.0332 4.0715 14.0332H5.30354C5.81388 14.0332 6.22759 14.4463 6.22759 14.9559C6.22759 15.4654 5.81388 15.8786 5.30354 15.8786Z" fill="#F9F9F9"/>
<path d="M11.464 15.8786H10.2319C9.72158 15.8786 9.30786 15.4654 9.30786 14.9559C9.30786 14.4463 9.72158 14.0332 10.2319 14.0332H11.464C11.9743 14.0332 12.388 14.4463 12.388 14.9559C12.388 15.4654 11.9743 15.8786 11.464 15.8786Z" fill="#F9F9F9"/>
<path d="M7.7678 13.4184C7.25746 13.4184 6.84375 13.0052 6.84375 12.4957V11.2654C6.84375 10.7559 7.25746 10.3428 7.7678 10.3428C8.2781 10.3428 8.69181 10.7559 8.69181 11.2654V12.4957C8.69181 13.0052 8.2781 13.4184 7.7678 13.4184Z" fill="#F9F9F9"/>
<path d="M7.7678 19.5697C7.25746 19.5697 6.84375 19.1566 6.84375 18.647V17.4168C6.84375 16.9072 7.25746 16.4941 7.7678 16.4941C8.2781 16.4941 8.69181 16.9072 8.69181 17.4168V18.647C8.69181 19.1566 8.2781 19.5697 7.7678 19.5697Z" fill="#F9F9F9"/>
<path d="M20.3515 25.8748C18.7703 25.8748 17.5317 24.5915 17.5317 22.9531C17.5317 21.3419 18.8444 20.0312 20.4579 20.0312C22.0714 20.0312 23.384 21.3419 23.384 22.9531C23.384 24.5368 21.9952 25.8748 20.3515 25.8748Z" fill="#E4E4FF"/>
<path d="M16.1147 12.8037V18.3397C16.625 18.3397 17.0388 17.9266 17.0388 17.4171V13.7264C17.0388 13.2168 16.625 12.8037 16.1147 12.8037Z" fill="#2E2654"/>
<path d="M8.8457 22.9531C8.8457 21.3419 10.1583 20.0312 11.7718 20.0312C13.3853 20.0312 14.698 21.3419 14.698 22.9531C14.698 24.5915 13.4594 25.8748 11.8782 25.8748C10.2345 25.8748 8.8457 24.5368 8.8457 22.9531Z" fill="#F9F9F9"/>
</g>
</g>
<defs>
<clipPath id="clip0_652_1694">
<rect width="32" height="32" fill="white"/>
</clipPath>
</defs>
</svg>
