<svg width="60" height="60" viewBox="0 0 60 60" fill="none" xmlns="http://www.w3.org/2000/svg">
<g clip-path="url(#clip0_303_11375)">
<mask id="mask0_303_11375" style="mask-type:luminance" maskUnits="userSpaceOnUse" x="0" y="0" width="60" height="60">
<path d="M30 60C46.5685 60 60 46.5685 60 30C60 13.4315 46.5685 0 30 0C13.4315 0 0 13.4315 0 30C0 46.5685 13.4315 60 30 60Z" fill="white"/>
</mask>
<g mask="url(#mask0_303_11375)">
<path d="M12.8906 121.406C48.4871 121.406 77.3438 92.5496 77.3438 56.9531C77.3438 21.3566 48.4871 -7.5 12.8906 -7.5C-22.7059 -7.5 -51.5625 21.3566 -51.5625 56.9531C-51.5625 92.5496 -22.7059 121.406 12.8906 121.406Z" fill="url(#paint0_radial_303_11375)"/>
</g>
<path d="M38.4375 23.9062C39.7319 23.9062 40.7812 22.8569 40.7812 21.5625C40.7812 20.2681 39.7319 19.2188 38.4375 19.2188C37.1431 19.2188 36.0938 20.2681 36.0938 21.5625C36.0938 22.8569 37.1431 23.9062 38.4375 23.9062Z" fill="white"/>
<path d="M30 22.5C28.5166 22.5 27.0666 22.9399 25.8332 23.764C24.5999 24.5881 23.6386 25.7594 23.0709 27.1299C22.5032 28.5003 22.3547 30.0083 22.6441 31.4632C22.9335 32.918 23.6478 34.2544 24.6967 35.3033C25.7456 36.3522 27.082 37.0665 28.5368 37.3559C29.9917 37.6453 31.4997 37.4968 32.8701 36.9291C34.2406 36.3614 35.4119 35.4001 36.236 34.1668C37.0601 32.9334 37.5 31.4834 37.5 30C37.5 28.0109 36.7098 26.1032 35.3033 24.6967C33.8968 23.2902 31.9891 22.5 30 22.5ZM30 33.75C29.2583 33.75 28.5333 33.5301 27.9166 33.118C27.2999 32.706 26.8193 32.1203 26.5355 31.4351C26.2516 30.7498 26.1774 29.9958 26.3221 29.2684C26.4668 28.541 26.8239 27.8728 27.3484 27.3484C27.8728 26.8239 28.541 26.4667 29.2684 26.3221C29.9958 26.1774 30.7498 26.2516 31.4351 26.5355C32.1203 26.8193 32.706 27.2999 33.118 27.9166C33.5301 28.5333 33.75 29.2583 33.75 30C33.75 30.9946 33.3549 31.9484 32.6517 32.6516C31.9484 33.3549 30.9946 33.75 30 33.75Z" fill="white"/>
<path d="M39.375 15H20.625C17.5184 15 15 17.5184 15 20.625V39.375C15 42.4816 17.5184 45 20.625 45H39.375C42.4816 45 45 42.4816 45 39.375V20.625C45 17.5184 42.4816 15 39.375 15Z" stroke="white" stroke-width="3.75" stroke-miterlimit="10"/>
</g>
<defs>
<radialGradient id="paint0_radial_303_11375" cx="0" cy="0" r="1" gradientUnits="userSpaceOnUse" gradientTransform="translate(12.8906 56.9531) scale(64.4531)">
<stop stop-color="#FFD676"/>
<stop offset="0.25" stop-color="#F2A454"/>
<stop offset="0.38" stop-color="#F05C3C"/>
<stop offset="0.7" stop-color="#C22F86"/>
<stop offset="0.96" stop-color="#6666AD"/>
<stop offset="0.99" stop-color="#5C6CB2"/>
</radialGradient>
<clipPath id="clip0_303_11375">
<rect width="60" height="60" fill="white"/>
</clipPath>
</defs>
</svg>
