<svg width="60" height="60" viewBox="0 0 60 60" fill="none" xmlns="http://www.w3.org/2000/svg">
<rect width="60.0001" height="60.0001" rx="30" fill="#1D9BF0"/>
<path d="M24.5101 45.8258C37.8151 45.8258 45.0901 34.8008 45.0901 25.2458C45.0901 24.9308 45.0901 24.6158 45.0751 24.3158C46.4851 23.2958 47.7151 22.0208 48.6901 20.5658C47.4001 21.1358 46.0051 21.5258 44.5351 21.7058C46.0351 20.8058 47.1751 19.3958 47.7151 17.7008C46.3201 18.5258 44.7751 19.1258 43.1251 19.4558C41.8051 18.0458 39.9301 17.1758 37.8451 17.1758C33.8551 17.1758 30.6151 20.4158 30.6151 24.4058C30.6151 24.9758 30.6751 25.5308 30.8101 26.0558C24.7951 25.7558 19.4701 22.8758 15.9001 18.4958C15.2851 19.5608 14.9251 20.8058 14.9251 22.1258C14.9251 24.6308 16.2001 26.8508 18.1501 28.1408C16.9651 28.1108 15.8551 27.7808 14.8801 27.2408C14.8801 27.2708 14.8801 27.3008 14.8801 27.3308C14.8801 30.8408 17.3701 33.7508 20.6851 34.4258C20.0851 34.5908 19.4401 34.6808 18.7801 34.6808C18.3151 34.6808 17.8651 34.6358 17.4151 34.5458C18.3301 37.4258 21.0001 39.5108 24.1651 39.5708C21.6901 41.5058 18.5701 42.6608 15.1801 42.6608C14.5951 42.6608 14.0251 42.6308 13.4551 42.5558C16.6201 44.6258 20.4301 45.8258 24.5101 45.8258Z" fill="white"/>
</svg>
