<svg width="26" height="26" viewBox="0 0 26 26" fill="none" xmlns="http://www.w3.org/2000/svg">
<path d="M23.072 23.2319V15.7373C23.072 12.0539 22.279 9.24023 17.9818 9.24023C15.9099 9.24023 14.5286 10.3657 13.9659 11.44H13.9147V9.57276H9.84766V23.2319H14.0938V16.4535C14.0938 14.663 14.4263 12.9492 16.6261 12.9492C18.8003 12.9492 18.8259 14.9699 18.8259 16.5558V23.2063H23.072V23.2319Z" fill="white"/>
<path d="M2.94141 9.57227H7.18751V23.2314H2.94141V9.57227Z" fill="white"/>
<path d="M5.06495 2.76855C3.70927 2.76855 2.60938 3.86845 2.60938 5.22413C2.60938 6.57982 3.70927 7.70529 5.06495 7.70529C6.42064 7.70529 7.52053 6.57982 7.52053 5.22413C7.52053 3.86845 6.42064 2.76855 5.06495 2.76855Z" fill="white"/>
</svg>
