<svg viewBox="0 0 1440 672" fill="none" xmlns="http://www.w3.org/2000/svg">
<g opacity="0.4">
<mask id="path-1-inside-1_303_9984" fill="white">
<path d="M0 0H96V96H0V0Z"/>
</mask>
<path d="M96 96V97H97V96H96ZM0 96H-1V97H0V96ZM95 0V96H97V0H95ZM96 95H0V97H96V95ZM1 96V0H-1V96H1Z" fill="white" fill-opacity="0.2" mask="url(#path-1-inside-1_303_9984)"/>
</g>
<g opacity="0.4">
<mask id="path-3-inside-2_303_9984" fill="white">
<path d="M96 0H192V96H96V0Z"/>
</mask>
<path d="M192 96V97H193V96H192ZM96 96H95V97H96V96ZM191 0V96H193V0H191ZM192 95H96V97H192V95ZM97 96V0H95V96H97Z" fill="white" fill-opacity="0.2" mask="url(#path-3-inside-2_303_9984)"/>
</g>
<g opacity="0.4">
<mask id="path-5-inside-3_303_9984" fill="white">
<path d="M192 0H288V96H192V0Z"/>
</mask>
<path d="M288 96V97H289V96H288ZM192 96H191V97H192V96ZM287 0V96H289V0H287ZM288 95H192V97H288V95ZM193 96V0H191V96H193Z" fill="white" fill-opacity="0.2" mask="url(#path-5-inside-3_303_9984)"/>
</g>
<g opacity="0.4">
<mask id="path-7-inside-4_303_9984" fill="white">
<path d="M288 0H384V96H288V0Z"/>
</mask>
<path d="M384 96V97H385V96H384ZM288 96H287V97H288V96ZM383 0V96H385V0H383ZM384 95H288V97H384V95ZM289 96V0H287V96H289Z" fill="white" fill-opacity="0.2" mask="url(#path-7-inside-4_303_9984)"/>
</g>
<g opacity="0.4">
<mask id="path-9-inside-5_303_9984" fill="white">
<path d="M384 0H480V96H384V0Z"/>
</mask>
<path d="M480 96V97H481V96H480ZM384 96H383V97H384V96ZM479 0V96H481V0H479ZM480 95H384V97H480V95ZM385 96V0H383V96H385Z" fill="white" fill-opacity="0.2" mask="url(#path-9-inside-5_303_9984)"/>
</g>
<g opacity="0.4">
<mask id="path-11-inside-6_303_9984" fill="white">
<path d="M480 0H576V96H480V0Z"/>
</mask>
<path d="M576 96V97H577V96H576ZM480 96H479V97H480V96ZM575 0V96H577V0H575ZM576 95H480V97H576V95ZM481 96V0H479V96H481Z" fill="white" fill-opacity="0.2" mask="url(#path-11-inside-6_303_9984)"/>
</g>
<g opacity="0.4">
<mask id="path-13-inside-7_303_9984" fill="white">
<path d="M576 0H672V96H576V0Z"/>
</mask>
<path d="M672 96V97H673V96H672ZM576 96H575V97H576V96ZM671 0V96H673V0H671ZM672 95H576V97H672V95ZM577 96V0H575V96H577Z" fill="white" fill-opacity="0.2" mask="url(#path-13-inside-7_303_9984)"/>
</g>
<g opacity="0.4">
<mask id="path-15-inside-8_303_9984" fill="white">
<path d="M672 0H768V96H672V0Z"/>
</mask>
<path d="M768 96V97H769V96H768ZM672 96H671V97H672V96ZM767 0V96H769V0H767ZM768 95H672V97H768V95ZM673 96V0H671V96H673Z" fill="white" fill-opacity="0.2" mask="url(#path-15-inside-8_303_9984)"/>
</g>
<g opacity="0.4">
<mask id="path-17-inside-9_303_9984" fill="white">
<path d="M768 0H864V96H768V0Z"/>
</mask>
<path d="M864 96V97H865V96H864ZM768 96H767V97H768V96ZM863 0V96H865V0H863ZM864 95H768V97H864V95ZM769 96V0H767V96H769Z" fill="white" fill-opacity="0.2" mask="url(#path-17-inside-9_303_9984)"/>
</g>
<g opacity="0.4">
<mask id="path-19-inside-10_303_9984" fill="white">
<path d="M864 0H960V96H864V0Z"/>
</mask>
<path d="M960 96V97H961V96H960ZM864 96H863V97H864V96ZM959 0V96H961V0H959ZM960 95H864V97H960V95ZM865 96V0H863V96H865Z" fill="white" fill-opacity="0.2" mask="url(#path-19-inside-10_303_9984)"/>
</g>
<g opacity="0.4">
<mask id="path-21-inside-11_303_9984" fill="white">
<path d="M960 0H1056V96H960V0Z"/>
</mask>
<path d="M1056 96V97H1057V96H1056ZM960 96H959V97H960V96ZM1055 0V96H1057V0H1055ZM1056 95H960V97H1056V95ZM961 96V0H959V96H961Z" fill="white" fill-opacity="0.2" mask="url(#path-21-inside-11_303_9984)"/>
</g>
<g opacity="0.4">
<mask id="path-23-inside-12_303_9984" fill="white">
<path d="M1056 0H1152V96H1056V0Z"/>
</mask>
<path d="M1152 96V97H1153V96H1152ZM1056 96H1055V97H1056V96ZM1151 0V96H1153V0H1151ZM1152 95H1056V97H1152V95ZM1057 96V0H1055V96H1057Z" fill="white" fill-opacity="0.2" mask="url(#path-23-inside-12_303_9984)"/>
</g>
<g opacity="0.4">
<mask id="path-25-inside-13_303_9984" fill="white">
<path d="M1152 0H1248V96H1152V0Z"/>
</mask>
<path d="M1248 96V97H1249V96H1248ZM1152 96H1151V97H1152V96ZM1247 0V96H1249V0H1247ZM1248 95H1152V97H1248V95ZM1153 96V0H1151V96H1153Z" fill="white" fill-opacity="0.2" mask="url(#path-25-inside-13_303_9984)"/>
</g>
<g opacity="0.4">
<mask id="path-27-inside-14_303_9984" fill="white">
<path d="M1248 0H1344V96H1248V0Z"/>
</mask>
<path d="M1344 96V97H1345V96H1344ZM1248 96H1247V97H1248V96ZM1343 0V96H1345V0H1343ZM1344 95H1248V97H1344V95ZM1249 96V0H1247V96H1249Z" fill="white" fill-opacity="0.2" mask="url(#path-27-inside-14_303_9984)"/>
</g>
<g opacity="0.4">
<mask id="path-29-inside-15_303_9984" fill="white">
<path d="M1344 0H1440V96H1344V0Z"/>
</mask>
<path d="M1440 96V97H1441V96H1440ZM1344 96H1343V97H1344V96ZM1439 0V96H1441V0H1439ZM1440 95H1344V97H1440V95ZM1345 96V0H1343V96H1345Z" fill="white" fill-opacity="0.2" mask="url(#path-29-inside-15_303_9984)"/>
</g>
<g opacity="0.4">
<mask id="path-31-inside-16_303_9984" fill="white">
<path d="M0 96H96V192H0V96Z"/>
</mask>
<path d="M96 192V193H97V192H96ZM0 192H-1V193H0V192ZM95 96V192H97V96H95ZM96 191H0V193H96V191ZM1 192V96H-1V192H1Z" fill="white" fill-opacity="0.2" mask="url(#path-31-inside-16_303_9984)"/>
</g>
<g opacity="0.4">
<mask id="path-33-inside-17_303_9984" fill="white">
<path d="M96 96H192V192H96V96Z"/>
</mask>
<path d="M192 192V193H193V192H192ZM96 192H95V193H96V192ZM191 96V192H193V96H191ZM192 191H96V193H192V191ZM97 192V96H95V192H97Z" fill="white" fill-opacity="0.2" mask="url(#path-33-inside-17_303_9984)"/>
</g>
<g opacity="0.4">
<mask id="path-35-inside-18_303_9984" fill="white">
<path d="M192 96H288V192H192V96Z"/>
</mask>
<path d="M288 192V193H289V192H288ZM192 192H191V193H192V192ZM287 96V192H289V96H287ZM288 191H192V193H288V191ZM193 192V96H191V192H193Z" fill="white" fill-opacity="0.2" mask="url(#path-35-inside-18_303_9984)"/>
</g>
<g opacity="0.4">
<mask id="path-37-inside-19_303_9984" fill="white">
<path d="M288 96H384V192H288V96Z"/>
</mask>
<path d="M384 192V193H385V192H384ZM288 192H287V193H288V192ZM383 96V192H385V96H383ZM384 191H288V193H384V191ZM289 192V96H287V192H289Z" fill="white" fill-opacity="0.2" mask="url(#path-37-inside-19_303_9984)"/>
</g>
<g opacity="0.4">
<mask id="path-39-inside-20_303_9984" fill="white">
<path d="M384 96H480V192H384V96Z"/>
</mask>
<path d="M480 192V193H481V192H480ZM384 192H383V193H384V192ZM479 96V192H481V96H479ZM480 191H384V193H480V191ZM385 192V96H383V192H385Z" fill="white" fill-opacity="0.2" mask="url(#path-39-inside-20_303_9984)"/>
</g>
<g opacity="0.4">
<mask id="path-41-inside-21_303_9984" fill="white">
<path d="M480 96H576V192H480V96Z"/>
</mask>
<path d="M576 192V193H577V192H576ZM480 192H479V193H480V192ZM575 96V192H577V96H575ZM576 191H480V193H576V191ZM481 192V96H479V192H481Z" fill="white" fill-opacity="0.2" mask="url(#path-41-inside-21_303_9984)"/>
</g>
<g opacity="0.4">
<mask id="path-43-inside-22_303_9984" fill="white">
<path d="M576 96H672V192H576V96Z"/>
</mask>
<path d="M672 192V193H673V192H672ZM576 192H575V193H576V192ZM671 96V192H673V96H671ZM672 191H576V193H672V191ZM577 192V96H575V192H577Z" fill="white" fill-opacity="0.2" mask="url(#path-43-inside-22_303_9984)"/>
</g>
<g opacity="0.4">
<mask id="path-45-inside-23_303_9984" fill="white">
<path d="M672 96H768V192H672V96Z"/>
</mask>
<path d="M768 192V193H769V192H768ZM672 192H671V193H672V192ZM767 96V192H769V96H767ZM768 191H672V193H768V191ZM673 192V96H671V192H673Z" fill="white" fill-opacity="0.2" mask="url(#path-45-inside-23_303_9984)"/>
</g>
<g opacity="0.4">
<mask id="path-47-inside-24_303_9984" fill="white">
<path d="M768 96H864V192H768V96Z"/>
</mask>
<path d="M864 192V193H865V192H864ZM768 192H767V193H768V192ZM863 96V192H865V96H863ZM864 191H768V193H864V191ZM769 192V96H767V192H769Z" fill="white" fill-opacity="0.2" mask="url(#path-47-inside-24_303_9984)"/>
</g>
<g opacity="0.4">
<mask id="path-49-inside-25_303_9984" fill="white">
<path d="M864 96H960V192H864V96Z"/>
</mask>
<path d="M960 192V193H961V192H960ZM864 192H863V193H864V192ZM959 96V192H961V96H959ZM960 191H864V193H960V191ZM865 192V96H863V192H865Z" fill="white" fill-opacity="0.2" mask="url(#path-49-inside-25_303_9984)"/>
</g>
<g opacity="0.4">
<mask id="path-51-inside-26_303_9984" fill="white">
<path d="M960 96H1056V192H960V96Z"/>
</mask>
<path d="M1056 192V193H1057V192H1056ZM960 192H959V193H960V192ZM1055 96V192H1057V96H1055ZM1056 191H960V193H1056V191ZM961 192V96H959V192H961Z" fill="white" fill-opacity="0.2" mask="url(#path-51-inside-26_303_9984)"/>
</g>
<g opacity="0.4">
<mask id="path-53-inside-27_303_9984" fill="white">
<path d="M1056 96H1152V192H1056V96Z"/>
</mask>
<path d="M1152 192V193H1153V192H1152ZM1056 192H1055V193H1056V192ZM1151 96V192H1153V96H1151ZM1152 191H1056V193H1152V191ZM1057 192V96H1055V192H1057Z" fill="white" fill-opacity="0.2" mask="url(#path-53-inside-27_303_9984)"/>
</g>
<g opacity="0.4">
<mask id="path-55-inside-28_303_9984" fill="white">
<path d="M1152 96H1248V192H1152V96Z"/>
</mask>
<path d="M1248 192V193H1249V192H1248ZM1152 192H1151V193H1152V192ZM1247 96V192H1249V96H1247ZM1248 191H1152V193H1248V191ZM1153 192V96H1151V192H1153Z" fill="white" fill-opacity="0.2" mask="url(#path-55-inside-28_303_9984)"/>
</g>
<g opacity="0.4">
<mask id="path-57-inside-29_303_9984" fill="white">
<path d="M1248 96H1344V192H1248V96Z"/>
</mask>
<path d="M1344 192V193H1345V192H1344ZM1248 192H1247V193H1248V192ZM1343 96V192H1345V96H1343ZM1344 191H1248V193H1344V191ZM1249 192V96H1247V192H1249Z" fill="white" fill-opacity="0.2" mask="url(#path-57-inside-29_303_9984)"/>
</g>
<g opacity="0.4">
<mask id="path-59-inside-30_303_9984" fill="white">
<path d="M1344 96H1440V192H1344V96Z"/>
</mask>
<path d="M1440 192V193H1441V192H1440ZM1344 192H1343V193H1344V192ZM1439 96V192H1441V96H1439ZM1440 191H1344V193H1440V191ZM1345 192V96H1343V192H1345Z" fill="white" fill-opacity="0.2" mask="url(#path-59-inside-30_303_9984)"/>
</g>
<g opacity="0.4">
<mask id="path-61-inside-31_303_9984" fill="white">
<path d="M0 192H96V288H0V192Z"/>
</mask>
<path d="M96 288V289H97V288H96ZM0 288H-1V289H0V288ZM95 192V288H97V192H95ZM96 287H0V289H96V287ZM1 288V192H-1V288H1Z" fill="white" fill-opacity="0.2" mask="url(#path-61-inside-31_303_9984)"/>
</g>
<g opacity="0.4">
<mask id="path-63-inside-32_303_9984" fill="white">
<path d="M96 192H192V288H96V192Z"/>
</mask>
<path d="M192 288V289H193V288H192ZM96 288H95V289H96V288ZM191 192V288H193V192H191ZM192 287H96V289H192V287ZM97 288V192H95V288H97Z" fill="white" fill-opacity="0.2" mask="url(#path-63-inside-32_303_9984)"/>
</g>
<g opacity="0.4">
<mask id="path-65-inside-33_303_9984" fill="white">
<path d="M192 192H288V288H192V192Z"/>
</mask>
<path d="M288 288V289H289V288H288ZM192 288H191V289H192V288ZM287 192V288H289V192H287ZM288 287H192V289H288V287ZM193 288V192H191V288H193Z" fill="white" fill-opacity="0.2" mask="url(#path-65-inside-33_303_9984)"/>
</g>
<g opacity="0.4">
<mask id="path-67-inside-34_303_9984" fill="white">
<path d="M288 192H384V288H288V192Z"/>
</mask>
<path d="M384 288V289H385V288H384ZM288 288H287V289H288V288ZM383 192V288H385V192H383ZM384 287H288V289H384V287ZM289 288V192H287V288H289Z" fill="white" fill-opacity="0.2" mask="url(#path-67-inside-34_303_9984)"/>
</g>
<g opacity="0.4">
<mask id="path-69-inside-35_303_9984" fill="white">
<path d="M384 192H480V288H384V192Z"/>
</mask>
<path d="M480 288V289H481V288H480ZM384 288H383V289H384V288ZM479 192V288H481V192H479ZM480 287H384V289H480V287ZM385 288V192H383V288H385Z" fill="white" fill-opacity="0.2" mask="url(#path-69-inside-35_303_9984)"/>
</g>
<g opacity="0.4">
<mask id="path-71-inside-36_303_9984" fill="white">
<path d="M480 192H576V288H480V192Z"/>
</mask>
<path d="M576 288V289H577V288H576ZM480 288H479V289H480V288ZM575 192V288H577V192H575ZM576 287H480V289H576V287ZM481 288V192H479V288H481Z" fill="white" fill-opacity="0.2" mask="url(#path-71-inside-36_303_9984)"/>
</g>
<g opacity="0.4">
<mask id="path-73-inside-37_303_9984" fill="white">
<path d="M576 192H672V288H576V192Z"/>
</mask>
<path d="M672 288V289H673V288H672ZM576 288H575V289H576V288ZM671 192V288H673V192H671ZM672 287H576V289H672V287ZM577 288V192H575V288H577Z" fill="white" fill-opacity="0.2" mask="url(#path-73-inside-37_303_9984)"/>
</g>
<g opacity="0.4">
<mask id="path-75-inside-38_303_9984" fill="white">
<path d="M672 192H768V288H672V192Z"/>
</mask>
<path d="M768 288V289H769V288H768ZM672 288H671V289H672V288ZM767 192V288H769V192H767ZM768 287H672V289H768V287ZM673 288V192H671V288H673Z" fill="white" fill-opacity="0.2" mask="url(#path-75-inside-38_303_9984)"/>
</g>
<g opacity="0.4">
<mask id="path-77-inside-39_303_9984" fill="white">
<path d="M768 192H864V288H768V192Z"/>
</mask>
<path d="M864 288V289H865V288H864ZM768 288H767V289H768V288ZM863 192V288H865V192H863ZM864 287H768V289H864V287ZM769 288V192H767V288H769Z" fill="white" fill-opacity="0.2" mask="url(#path-77-inside-39_303_9984)"/>
</g>
<g opacity="0.4">
<mask id="path-79-inside-40_303_9984" fill="white">
<path d="M864 192H960V288H864V192Z"/>
</mask>
<path d="M960 288V289H961V288H960ZM864 288H863V289H864V288ZM959 192V288H961V192H959ZM960 287H864V289H960V287ZM865 288V192H863V288H865Z" fill="white" fill-opacity="0.2" mask="url(#path-79-inside-40_303_9984)"/>
</g>
<g opacity="0.4">
<mask id="path-81-inside-41_303_9984" fill="white">
<path d="M960 192H1056V288H960V192Z"/>
</mask>
<path d="M1056 288V289H1057V288H1056ZM960 288H959V289H960V288ZM1055 192V288H1057V192H1055ZM1056 287H960V289H1056V287ZM961 288V192H959V288H961Z" fill="white" fill-opacity="0.2" mask="url(#path-81-inside-41_303_9984)"/>
</g>
<g opacity="0.4">
<mask id="path-83-inside-42_303_9984" fill="white">
<path d="M1056 192H1152V288H1056V192Z"/>
</mask>
<path d="M1152 288V289H1153V288H1152ZM1056 288H1055V289H1056V288ZM1151 192V288H1153V192H1151ZM1152 287H1056V289H1152V287ZM1057 288V192H1055V288H1057Z" fill="white" fill-opacity="0.2" mask="url(#path-83-inside-42_303_9984)"/>
</g>
<g opacity="0.4">
<mask id="path-85-inside-43_303_9984" fill="white">
<path d="M1152 192H1248V288H1152V192Z"/>
</mask>
<path d="M1248 288V289H1249V288H1248ZM1152 288H1151V289H1152V288ZM1247 192V288H1249V192H1247ZM1248 287H1152V289H1248V287ZM1153 288V192H1151V288H1153Z" fill="white" fill-opacity="0.2" mask="url(#path-85-inside-43_303_9984)"/>
</g>
<g opacity="0.4">
<mask id="path-87-inside-44_303_9984" fill="white">
<path d="M1248 192H1344V288H1248V192Z"/>
</mask>
<path d="M1344 288V289H1345V288H1344ZM1248 288H1247V289H1248V288ZM1343 192V288H1345V192H1343ZM1344 287H1248V289H1344V287ZM1249 288V192H1247V288H1249Z" fill="white" fill-opacity="0.2" mask="url(#path-87-inside-44_303_9984)"/>
</g>
<g opacity="0.4">
<mask id="path-89-inside-45_303_9984" fill="white">
<path d="M1344 192H1440V288H1344V192Z"/>
</mask>
<path d="M1440 288V289H1441V288H1440ZM1344 288H1343V289H1344V288ZM1439 192V288H1441V192H1439ZM1440 287H1344V289H1440V287ZM1345 288V192H1343V288H1345Z" fill="white" fill-opacity="0.2" mask="url(#path-89-inside-45_303_9984)"/>
</g>
<g opacity="0.4">
<mask id="path-91-inside-46_303_9984" fill="white">
<path d="M0 288H96V384H0V288Z"/>
</mask>
<path d="M96 384V385H97V384H96ZM0 384H-1V385H0V384ZM95 288V384H97V288H95ZM96 383H0V385H96V383ZM1 384V288H-1V384H1Z" fill="white" fill-opacity="0.2" mask="url(#path-91-inside-46_303_9984)"/>
</g>
<g opacity="0.4">
<mask id="path-93-inside-47_303_9984" fill="white">
<path d="M96 288H192V384H96V288Z"/>
</mask>
<path d="M192 384V385H193V384H192ZM96 384H95V385H96V384ZM191 288V384H193V288H191ZM192 383H96V385H192V383ZM97 384V288H95V384H97Z" fill="white" fill-opacity="0.2" mask="url(#path-93-inside-47_303_9984)"/>
</g>
<g opacity="0.4">
<mask id="path-95-inside-48_303_9984" fill="white">
<path d="M192 288H288V384H192V288Z"/>
</mask>
<path d="M288 384V385H289V384H288ZM192 384H191V385H192V384ZM287 288V384H289V288H287ZM288 383H192V385H288V383ZM193 384V288H191V384H193Z" fill="white" fill-opacity="0.2" mask="url(#path-95-inside-48_303_9984)"/>
</g>
<g opacity="0.4">
<mask id="path-97-inside-49_303_9984" fill="white">
<path d="M288 288H384V384H288V288Z"/>
</mask>
<path d="M384 384V385H385V384H384ZM288 384H287V385H288V384ZM383 288V384H385V288H383ZM384 383H288V385H384V383ZM289 384V288H287V384H289Z" fill="white" fill-opacity="0.2" mask="url(#path-97-inside-49_303_9984)"/>
</g>
<g opacity="0.4">
<mask id="path-99-inside-50_303_9984" fill="white">
<path d="M384 288H480V384H384V288Z"/>
</mask>
<path d="M480 384V385H481V384H480ZM384 384H383V385H384V384ZM479 288V384H481V288H479ZM480 383H384V385H480V383ZM385 384V288H383V384H385Z" fill="white" fill-opacity="0.2" mask="url(#path-99-inside-50_303_9984)"/>
</g>
<g opacity="0.4">
<mask id="path-101-inside-51_303_9984" fill="white">
<path d="M480 288H576V384H480V288Z"/>
</mask>
<path d="M576 384V385H577V384H576ZM480 384H479V385H480V384ZM575 288V384H577V288H575ZM576 383H480V385H576V383ZM481 384V288H479V384H481Z" fill="white" fill-opacity="0.2" mask="url(#path-101-inside-51_303_9984)"/>
</g>
<g opacity="0.4">
<mask id="path-103-inside-52_303_9984" fill="white">
<path d="M576 288H672V384H576V288Z"/>
</mask>
<path d="M672 384V385H673V384H672ZM576 384H575V385H576V384ZM671 288V384H673V288H671ZM672 383H576V385H672V383ZM577 384V288H575V384H577Z" fill="white" fill-opacity="0.2" mask="url(#path-103-inside-52_303_9984)"/>
</g>
<g opacity="0.4">
<mask id="path-105-inside-53_303_9984" fill="white">
<path d="M672 288H768V384H672V288Z"/>
</mask>
<path d="M768 384V385H769V384H768ZM672 384H671V385H672V384ZM767 288V384H769V288H767ZM768 383H672V385H768V383ZM673 384V288H671V384H673Z" fill="white" fill-opacity="0.2" mask="url(#path-105-inside-53_303_9984)"/>
</g>
<g opacity="0.4">
<mask id="path-107-inside-54_303_9984" fill="white">
<path d="M768 288H864V384H768V288Z"/>
</mask>
<path d="M864 384V385H865V384H864ZM768 384H767V385H768V384ZM863 288V384H865V288H863ZM864 383H768V385H864V383ZM769 384V288H767V384H769Z" fill="white" fill-opacity="0.2" mask="url(#path-107-inside-54_303_9984)"/>
</g>
<g opacity="0.4">
<mask id="path-109-inside-55_303_9984" fill="white">
<path d="M864 288H960V384H864V288Z"/>
</mask>
<path d="M960 384V385H961V384H960ZM864 384H863V385H864V384ZM959 288V384H961V288H959ZM960 383H864V385H960V383ZM865 384V288H863V384H865Z" fill="white" fill-opacity="0.2" mask="url(#path-109-inside-55_303_9984)"/>
</g>
<g opacity="0.4">
<mask id="path-111-inside-56_303_9984" fill="white">
<path d="M960 288H1056V384H960V288Z"/>
</mask>
<path d="M1056 384V385H1057V384H1056ZM960 384H959V385H960V384ZM1055 288V384H1057V288H1055ZM1056 383H960V385H1056V383ZM961 384V288H959V384H961Z" fill="white" fill-opacity="0.2" mask="url(#path-111-inside-56_303_9984)"/>
</g>
<g opacity="0.4">
<mask id="path-113-inside-57_303_9984" fill="white">
<path d="M1056 288H1152V384H1056V288Z"/>
</mask>
<path d="M1152 384V385H1153V384H1152ZM1056 384H1055V385H1056V384ZM1151 288V384H1153V288H1151ZM1152 383H1056V385H1152V383ZM1057 384V288H1055V384H1057Z" fill="white" fill-opacity="0.2" mask="url(#path-113-inside-57_303_9984)"/>
</g>
<g opacity="0.4">
<mask id="path-115-inside-58_303_9984" fill="white">
<path d="M1152 288H1248V384H1152V288Z"/>
</mask>
<path d="M1248 384V385H1249V384H1248ZM1152 384H1151V385H1152V384ZM1247 288V384H1249V288H1247ZM1248 383H1152V385H1248V383ZM1153 384V288H1151V384H1153Z" fill="white" fill-opacity="0.2" mask="url(#path-115-inside-58_303_9984)"/>
</g>
<g opacity="0.4">
<mask id="path-117-inside-59_303_9984" fill="white">
<path d="M1248 288H1344V384H1248V288Z"/>
</mask>
<path d="M1344 384V385H1345V384H1344ZM1248 384H1247V385H1248V384ZM1343 288V384H1345V288H1343ZM1344 383H1248V385H1344V383ZM1249 384V288H1247V384H1249Z" fill="white" fill-opacity="0.2" mask="url(#path-117-inside-59_303_9984)"/>
</g>
<g opacity="0.4">
<mask id="path-119-inside-60_303_9984" fill="white">
<path d="M1344 288H1440V384H1344V288Z"/>
</mask>
<path d="M1440 384V385H1441V384H1440ZM1344 384H1343V385H1344V384ZM1439 288V384H1441V288H1439ZM1440 383H1344V385H1440V383ZM1345 384V288H1343V384H1345Z" fill="white" fill-opacity="0.2" mask="url(#path-119-inside-60_303_9984)"/>
</g>
<g opacity="0.4">
<mask id="path-121-inside-61_303_9984" fill="white">
<path d="M0 384H96V480H0V384Z"/>
</mask>
<path d="M96 480V481H97V480H96ZM0 480H-1V481H0V480ZM95 384V480H97V384H95ZM96 479H0V481H96V479ZM1 480V384H-1V480H1Z" fill="white" fill-opacity="0.2" mask="url(#path-121-inside-61_303_9984)"/>
</g>
<g opacity="0.4">
<mask id="path-123-inside-62_303_9984" fill="white">
<path d="M96 384H192V480H96V384Z"/>
</mask>
<path d="M192 480V481H193V480H192ZM96 480H95V481H96V480ZM191 384V480H193V384H191ZM192 479H96V481H192V479ZM97 480V384H95V480H97Z" fill="white" fill-opacity="0.2" mask="url(#path-123-inside-62_303_9984)"/>
</g>
<g opacity="0.4">
<mask id="path-125-inside-63_303_9984" fill="white">
<path d="M192 384H288V480H192V384Z"/>
</mask>
<path d="M288 480V481H289V480H288ZM192 480H191V481H192V480ZM287 384V480H289V384H287ZM288 479H192V481H288V479ZM193 480V384H191V480H193Z" fill="white" fill-opacity="0.2" mask="url(#path-125-inside-63_303_9984)"/>
</g>
<g opacity="0.4">
<mask id="path-127-inside-64_303_9984" fill="white">
<path d="M288 384H384V480H288V384Z"/>
</mask>
<path d="M384 480V481H385V480H384ZM288 480H287V481H288V480ZM383 384V480H385V384H383ZM384 479H288V481H384V479ZM289 480V384H287V480H289Z" fill="white" fill-opacity="0.2" mask="url(#path-127-inside-64_303_9984)"/>
</g>
<g opacity="0.4">
<mask id="path-129-inside-65_303_9984" fill="white">
<path d="M384 384H480V480H384V384Z"/>
</mask>
<path d="M480 480V481H481V480H480ZM384 480H383V481H384V480ZM479 384V480H481V384H479ZM480 479H384V481H480V479ZM385 480V384H383V480H385Z" fill="white" fill-opacity="0.2" mask="url(#path-129-inside-65_303_9984)"/>
</g>
<g opacity="0.4">
<mask id="path-131-inside-66_303_9984" fill="white">
<path d="M480 384H576V480H480V384Z"/>
</mask>
<path d="M576 480V481H577V480H576ZM480 480H479V481H480V480ZM575 384V480H577V384H575ZM576 479H480V481H576V479ZM481 480V384H479V480H481Z" fill="white" fill-opacity="0.2" mask="url(#path-131-inside-66_303_9984)"/>
</g>
<g opacity="0.4">
<mask id="path-133-inside-67_303_9984" fill="white">
<path d="M576 384H672V480H576V384Z"/>
</mask>
<path d="M672 480V481H673V480H672ZM576 480H575V481H576V480ZM671 384V480H673V384H671ZM672 479H576V481H672V479ZM577 480V384H575V480H577Z" fill="white" fill-opacity="0.2" mask="url(#path-133-inside-67_303_9984)"/>
</g>
<g opacity="0.4">
<mask id="path-135-inside-68_303_9984" fill="white">
<path d="M672 384H768V480H672V384Z"/>
</mask>
<path d="M768 480V481H769V480H768ZM672 480H671V481H672V480ZM767 384V480H769V384H767ZM768 479H672V481H768V479ZM673 480V384H671V480H673Z" fill="white" fill-opacity="0.2" mask="url(#path-135-inside-68_303_9984)"/>
</g>
<g opacity="0.4">
<mask id="path-137-inside-69_303_9984" fill="white">
<path d="M768 384H864V480H768V384Z"/>
</mask>
<path d="M864 480V481H865V480H864ZM768 480H767V481H768V480ZM863 384V480H865V384H863ZM864 479H768V481H864V479ZM769 480V384H767V480H769Z" fill="white" fill-opacity="0.2" mask="url(#path-137-inside-69_303_9984)"/>
</g>
<g opacity="0.4">
<mask id="path-139-inside-70_303_9984" fill="white">
<path d="M864 384H960V480H864V384Z"/>
</mask>
<path d="M960 480V481H961V480H960ZM864 480H863V481H864V480ZM959 384V480H961V384H959ZM960 479H864V481H960V479ZM865 480V384H863V480H865Z" fill="white" fill-opacity="0.2" mask="url(#path-139-inside-70_303_9984)"/>
</g>
<g opacity="0.4">
<mask id="path-141-inside-71_303_9984" fill="white">
<path d="M960 384H1056V480H960V384Z"/>
</mask>
<path d="M1056 480V481H1057V480H1056ZM960 480H959V481H960V480ZM1055 384V480H1057V384H1055ZM1056 479H960V481H1056V479ZM961 480V384H959V480H961Z" fill="white" fill-opacity="0.2" mask="url(#path-141-inside-71_303_9984)"/>
</g>
<g opacity="0.4">
<mask id="path-143-inside-72_303_9984" fill="white">
<path d="M1056 384H1152V480H1056V384Z"/>
</mask>
<path d="M1152 480V481H1153V480H1152ZM1056 480H1055V481H1056V480ZM1151 384V480H1153V384H1151ZM1152 479H1056V481H1152V479ZM1057 480V384H1055V480H1057Z" fill="white" fill-opacity="0.2" mask="url(#path-143-inside-72_303_9984)"/>
</g>
<g opacity="0.4">
<mask id="path-145-inside-73_303_9984" fill="white">
<path d="M1152 384H1248V480H1152V384Z"/>
</mask>
<path d="M1248 480V481H1249V480H1248ZM1152 480H1151V481H1152V480ZM1247 384V480H1249V384H1247ZM1248 479H1152V481H1248V479ZM1153 480V384H1151V480H1153Z" fill="white" fill-opacity="0.2" mask="url(#path-145-inside-73_303_9984)"/>
</g>
<g opacity="0.4">
<mask id="path-147-inside-74_303_9984" fill="white">
<path d="M1248 384H1344V480H1248V384Z"/>
</mask>
<path d="M1344 480V481H1345V480H1344ZM1248 480H1247V481H1248V480ZM1343 384V480H1345V384H1343ZM1344 479H1248V481H1344V479ZM1249 480V384H1247V480H1249Z" fill="white" fill-opacity="0.2" mask="url(#path-147-inside-74_303_9984)"/>
</g>
<g opacity="0.4">
<mask id="path-149-inside-75_303_9984" fill="white">
<path d="M1344 384H1440V480H1344V384Z"/>
</mask>
<path d="M1440 480V481H1441V480H1440ZM1344 480H1343V481H1344V480ZM1439 384V480H1441V384H1439ZM1440 479H1344V481H1440V479ZM1345 480V384H1343V480H1345Z" fill="white" fill-opacity="0.2" mask="url(#path-149-inside-75_303_9984)"/>
</g>
<g opacity="0.4">
<mask id="path-151-inside-76_303_9984" fill="white">
<path d="M0 480H96V576H0V480Z"/>
</mask>
<path d="M96 576V577H97V576H96ZM0 576H-1V577H0V576ZM95 480V576H97V480H95ZM96 575H0V577H96V575ZM1 576V480H-1V576H1Z" fill="white" fill-opacity="0.2" mask="url(#path-151-inside-76_303_9984)"/>
</g>
<g opacity="0.4">
<mask id="path-153-inside-77_303_9984" fill="white">
<path d="M96 480H192V576H96V480Z"/>
</mask>
<path d="M192 576V577H193V576H192ZM96 576H95V577H96V576ZM191 480V576H193V480H191ZM192 575H96V577H192V575ZM97 576V480H95V576H97Z" fill="white" fill-opacity="0.2" mask="url(#path-153-inside-77_303_9984)"/>
</g>
<g opacity="0.4">
<mask id="path-155-inside-78_303_9984" fill="white">
<path d="M192 480H288V576H192V480Z"/>
</mask>
<path d="M288 576V577H289V576H288ZM192 576H191V577H192V576ZM287 480V576H289V480H287ZM288 575H192V577H288V575ZM193 576V480H191V576H193Z" fill="white" fill-opacity="0.2" mask="url(#path-155-inside-78_303_9984)"/>
</g>
<g opacity="0.4">
<mask id="path-157-inside-79_303_9984" fill="white">
<path d="M288 480H384V576H288V480Z"/>
</mask>
<path d="M384 576V577H385V576H384ZM288 576H287V577H288V576ZM383 480V576H385V480H383ZM384 575H288V577H384V575ZM289 576V480H287V576H289Z" fill="white" fill-opacity="0.2" mask="url(#path-157-inside-79_303_9984)"/>
</g>
<g opacity="0.4">
<mask id="path-159-inside-80_303_9984" fill="white">
<path d="M384 480H480V576H384V480Z"/>
</mask>
<path d="M480 576V577H481V576H480ZM384 576H383V577H384V576ZM479 480V576H481V480H479ZM480 575H384V577H480V575ZM385 576V480H383V576H385Z" fill="white" fill-opacity="0.2" mask="url(#path-159-inside-80_303_9984)"/>
</g>
<g opacity="0.4">
<mask id="path-161-inside-81_303_9984" fill="white">
<path d="M480 480H576V576H480V480Z"/>
</mask>
<path d="M576 576V577H577V576H576ZM480 576H479V577H480V576ZM575 480V576H577V480H575ZM576 575H480V577H576V575ZM481 576V480H479V576H481Z" fill="white" fill-opacity="0.2" mask="url(#path-161-inside-81_303_9984)"/>
</g>
<g opacity="0.4">
<mask id="path-163-inside-82_303_9984" fill="white">
<path d="M576 480H672V576H576V480Z"/>
</mask>
<path d="M672 576V577H673V576H672ZM576 576H575V577H576V576ZM671 480V576H673V480H671ZM672 575H576V577H672V575ZM577 576V480H575V576H577Z" fill="white" fill-opacity="0.2" mask="url(#path-163-inside-82_303_9984)"/>
</g>
<g opacity="0.4">
<mask id="path-165-inside-83_303_9984" fill="white">
<path d="M672 480H768V576H672V480Z"/>
</mask>
<path d="M768 576V577H769V576H768ZM672 576H671V577H672V576ZM767 480V576H769V480H767ZM768 575H672V577H768V575ZM673 576V480H671V576H673Z" fill="white" fill-opacity="0.2" mask="url(#path-165-inside-83_303_9984)"/>
</g>
<g opacity="0.4">
<mask id="path-167-inside-84_303_9984" fill="white">
<path d="M768 480H864V576H768V480Z"/>
</mask>
<path d="M864 576V577H865V576H864ZM768 576H767V577H768V576ZM863 480V576H865V480H863ZM864 575H768V577H864V575ZM769 576V480H767V576H769Z" fill="white" fill-opacity="0.2" mask="url(#path-167-inside-84_303_9984)"/>
</g>
<g opacity="0.4">
<mask id="path-169-inside-85_303_9984" fill="white">
<path d="M864 480H960V576H864V480Z"/>
</mask>
<path d="M960 576V577H961V576H960ZM864 576H863V577H864V576ZM959 480V576H961V480H959ZM960 575H864V577H960V575ZM865 576V480H863V576H865Z" fill="white" fill-opacity="0.2" mask="url(#path-169-inside-85_303_9984)"/>
</g>
<g opacity="0.4">
<mask id="path-171-inside-86_303_9984" fill="white">
<path d="M960 480H1056V576H960V480Z"/>
</mask>
<path d="M1056 576V577H1057V576H1056ZM960 576H959V577H960V576ZM1055 480V576H1057V480H1055ZM1056 575H960V577H1056V575ZM961 576V480H959V576H961Z" fill="white" fill-opacity="0.2" mask="url(#path-171-inside-86_303_9984)"/>
</g>
<g opacity="0.4">
<mask id="path-173-inside-87_303_9984" fill="white">
<path d="M1056 480H1152V576H1056V480Z"/>
</mask>
<path d="M1152 576V577H1153V576H1152ZM1056 576H1055V577H1056V576ZM1151 480V576H1153V480H1151ZM1152 575H1056V577H1152V575ZM1057 576V480H1055V576H1057Z" fill="white" fill-opacity="0.2" mask="url(#path-173-inside-87_303_9984)"/>
</g>
<g opacity="0.4">
<mask id="path-175-inside-88_303_9984" fill="white">
<path d="M1152 480H1248V576H1152V480Z"/>
</mask>
<path d="M1248 576V577H1249V576H1248ZM1152 576H1151V577H1152V576ZM1247 480V576H1249V480H1247ZM1248 575H1152V577H1248V575ZM1153 576V480H1151V576H1153Z" fill="white" fill-opacity="0.2" mask="url(#path-175-inside-88_303_9984)"/>
</g>
<g opacity="0.4">
<mask id="path-177-inside-89_303_9984" fill="white">
<path d="M1248 480H1344V576H1248V480Z"/>
</mask>
<path d="M1344 576V577H1345V576H1344ZM1248 576H1247V577H1248V576ZM1343 480V576H1345V480H1343ZM1344 575H1248V577H1344V575ZM1249 576V480H1247V576H1249Z" fill="white" fill-opacity="0.2" mask="url(#path-177-inside-89_303_9984)"/>
</g>
<g opacity="0.4">
<mask id="path-179-inside-90_303_9984" fill="white">
<path d="M1344 480H1440V576H1344V480Z"/>
</mask>
<path d="M1440 576V577H1441V576H1440ZM1344 576H1343V577H1344V576ZM1439 480V576H1441V480H1439ZM1440 575H1344V577H1440V575ZM1345 576V480H1343V576H1345Z" fill="white" fill-opacity="0.2" mask="url(#path-179-inside-90_303_9984)"/>
</g>
<g opacity="0.4">
<mask id="path-181-inside-91_303_9984" fill="white">
<path d="M0 576H96V672H0V576Z"/>
</mask>
<path d="M96 672V673H97V672H96ZM0 672H-1V673H0V672ZM95 576V672H97V576H95ZM96 671H0V673H96V671ZM1 672V576H-1V672H1Z" fill="white" fill-opacity="0.2" mask="url(#path-181-inside-91_303_9984)"/>
</g>
<g opacity="0.4">
<mask id="path-183-inside-92_303_9984" fill="white">
<path d="M96 576H192V672H96V576Z"/>
</mask>
<path d="M192 672V673H193V672H192ZM96 672H95V673H96V672ZM191 576V672H193V576H191ZM192 671H96V673H192V671ZM97 672V576H95V672H97Z" fill="white" fill-opacity="0.2" mask="url(#path-183-inside-92_303_9984)"/>
</g>
<g opacity="0.4">
<mask id="path-185-inside-93_303_9984" fill="white">
<path d="M192 576H288V672H192V576Z"/>
</mask>
<path d="M288 672V673H289V672H288ZM192 672H191V673H192V672ZM287 576V672H289V576H287ZM288 671H192V673H288V671ZM193 672V576H191V672H193Z" fill="white" fill-opacity="0.2" mask="url(#path-185-inside-93_303_9984)"/>
</g>
<g opacity="0.4">
<mask id="path-187-inside-94_303_9984" fill="white">
<path d="M288 576H384V672H288V576Z"/>
</mask>
<path d="M384 672V673H385V672H384ZM288 672H287V673H288V672ZM383 576V672H385V576H383ZM384 671H288V673H384V671ZM289 672V576H287V672H289Z" fill="white" fill-opacity="0.2" mask="url(#path-187-inside-94_303_9984)"/>
</g>
<g opacity="0.4">
<mask id="path-189-inside-95_303_9984" fill="white">
<path d="M384 576H480V672H384V576Z"/>
</mask>
<path d="M480 672V673H481V672H480ZM384 672H383V673H384V672ZM479 576V672H481V576H479ZM480 671H384V673H480V671ZM385 672V576H383V672H385Z" fill="white" fill-opacity="0.2" mask="url(#path-189-inside-95_303_9984)"/>
</g>
<g opacity="0.4">
<mask id="path-191-inside-96_303_9984" fill="white">
<path d="M480 576H576V672H480V576Z"/>
</mask>
<path d="M576 672V673H577V672H576ZM480 672H479V673H480V672ZM575 576V672H577V576H575ZM576 671H480V673H576V671ZM481 672V576H479V672H481Z" fill="white" fill-opacity="0.2" mask="url(#path-191-inside-96_303_9984)"/>
</g>
<g opacity="0.4">
<mask id="path-193-inside-97_303_9984" fill="white">
<path d="M576 576H672V672H576V576Z"/>
</mask>
<path d="M672 672V673H673V672H672ZM576 672H575V673H576V672ZM671 576V672H673V576H671ZM672 671H576V673H672V671ZM577 672V576H575V672H577Z" fill="white" fill-opacity="0.2" mask="url(#path-193-inside-97_303_9984)"/>
</g>
<g opacity="0.4">
<mask id="path-195-inside-98_303_9984" fill="white">
<path d="M672 576H768V672H672V576Z"/>
</mask>
<path d="M768 672V673H769V672H768ZM672 672H671V673H672V672ZM767 576V672H769V576H767ZM768 671H672V673H768V671ZM673 672V576H671V672H673Z" fill="white" fill-opacity="0.2" mask="url(#path-195-inside-98_303_9984)"/>
</g>
<g opacity="0.4">
<mask id="path-197-inside-99_303_9984" fill="white">
<path d="M768 576H864V672H768V576Z"/>
</mask>
<path d="M864 672V673H865V672H864ZM768 672H767V673H768V672ZM863 576V672H865V576H863ZM864 671H768V673H864V671ZM769 672V576H767V672H769Z" fill="white" fill-opacity="0.2" mask="url(#path-197-inside-99_303_9984)"/>
</g>
<g opacity="0.4">
<mask id="path-199-inside-100_303_9984" fill="white">
<path d="M864 576H960V672H864V576Z"/>
</mask>
<path d="M960 672V673H961V672H960ZM864 672H863V673H864V672ZM959 576V672H961V576H959ZM960 671H864V673H960V671ZM865 672V576H863V672H865Z" fill="white" fill-opacity="0.2" mask="url(#path-199-inside-100_303_9984)"/>
</g>
<g opacity="0.4">
<mask id="path-201-inside-101_303_9984" fill="white">
<path d="M960 576H1056V672H960V576Z"/>
</mask>
<path d="M1056 672V673H1057V672H1056ZM960 672H959V673H960V672ZM1055 576V672H1057V576H1055ZM1056 671H960V673H1056V671ZM961 672V576H959V672H961Z" fill="white" fill-opacity="0.2" mask="url(#path-201-inside-101_303_9984)"/>
</g>
<g opacity="0.4">
<mask id="path-203-inside-102_303_9984" fill="white">
<path d="M1056 576H1152V672H1056V576Z"/>
</mask>
<path d="M1152 672V673H1153V672H1152ZM1056 672H1055V673H1056V672ZM1151 576V672H1153V576H1151ZM1152 671H1056V673H1152V671ZM1057 672V576H1055V672H1057Z" fill="white" fill-opacity="0.2" mask="url(#path-203-inside-102_303_9984)"/>
</g>
<g opacity="0.4">
<mask id="path-205-inside-103_303_9984" fill="white">
<path d="M1152 576H1248V672H1152V576Z"/>
</mask>
<path d="M1248 672V673H1249V672H1248ZM1152 672H1151V673H1152V672ZM1247 576V672H1249V576H1247ZM1248 671H1152V673H1248V671ZM1153 672V576H1151V672H1153Z" fill="white" fill-opacity="0.2" mask="url(#path-205-inside-103_303_9984)"/>
</g>
<g opacity="0.4">
<mask id="path-207-inside-104_303_9984" fill="white">
<path d="M1248 576H1344V672H1248V576Z"/>
</mask>
<path d="M1344 672V673H1345V672H1344ZM1248 672H1247V673H1248V672ZM1343 576V672H1345V576H1343ZM1344 671H1248V673H1344V671ZM1249 672V576H1247V672H1249Z" fill="white" fill-opacity="0.2" mask="url(#path-207-inside-104_303_9984)"/>
</g>
<g opacity="0.4">
<mask id="path-209-inside-105_303_9984" fill="white">
<path d="M1344 576H1440V672H1344V576Z"/>
</mask>
<path d="M1440 672V673H1441V672H1440ZM1344 672H1343V673H1344V672ZM1439 576V672H1441V576H1439ZM1440 671H1344V673H1440V671ZM1345 672V576H1343V672H1345Z" fill="white" fill-opacity="0.2" mask="url(#path-209-inside-105_303_9984)"/>
</g>
</svg>
