<svg width="12" height="12" viewBox="0 0 12 12" fill="none" xmlns="http://www.w3.org/2000/svg">
<g clip-path="url(#clip0_303_4888)">
<path d="M11.1818 4.90909H7.09088V0.818182C7.09088 0.366544 6.72433 0 6.27269 0H5.72727C5.27564 0 4.90909 0.366544 4.90909 0.818182V4.90909H0.818182C0.366544 4.90909 0 5.27564 0 5.72727V6.27269C0 6.72433 0.366544 7.09088 0.818182 7.09088H4.90909V11.1818C4.90909 11.6334 5.27564 12 5.72727 12H6.27269C6.72433 12 7.09088 11.6334 7.09088 11.1818V7.09088H11.1818C11.6334 7.09088 12 6.72433 12 6.27269V5.72727C12 5.27564 11.6334 4.90909 11.1818 4.90909Z" fill="white"/>
</g>
<defs>
<clipPath id="clip0_303_4888">
<rect width="12" height="12" fill="white"/>
</clipPath>
</defs>
</svg>
