<svg width="21" height="21" viewBox="0 0 21 21" fill="none" xmlns="http://www.w3.org/2000/svg">
<path opacity="0.4" d="M7.875 6.3V14.6912C7.875 17.5 9.625 19.25 12.425 19.25H14.6913C17.4913 19.25 19.2412 17.5 19.2412 14.7V6.3C19.25 3.5 17.5 1.75 14.7 1.75H12.425C9.625 1.75 7.875 3.5 7.875 6.3Z" fill="#E4E4E7"/>
<path d="M4.87352 7.10508L1.94227 10.0363C1.68852 10.2901 1.68852 10.7101 1.94227 10.9638L4.87352 13.8951C5.12727 14.1488 5.54727 14.1488 5.80102 13.8951C6.05477 13.6413 6.05477 13.2213 5.80102 12.9676L3.98977 11.1563H13.3436C13.7023 11.1563 13.9998 10.8588 13.9998 10.5001C13.9998 10.1413 13.7023 9.84381 13.3436 9.84381H3.98977L5.80102 8.03258C5.93227 7.90133 5.99352 7.73508 5.99352 7.56883C5.99352 7.40258 5.93227 7.22758 5.80102 7.10508C5.54727 6.84258 5.13602 6.84258 4.87352 7.10508Z" fill="#E4E4E7"/>
</svg>
