<svg width="24" height="24" viewBox="0 0 24 24" fill="" xmlns="http://www.w3.org/2000/svg">
<path d="M2.45215 12.1955C2.45215 10.0103 2.45215 8.91778 2.94791 8.01206C3.44368 7.10634 4.34941 6.54421 6.16086 5.41998L8.07058 4.23475C9.98542 3.04635 10.9429 2.45215 12.0008 2.45215C13.0586 2.45215 14.0161 3.04635 15.931 4.23475L17.8407 5.41997C19.6522 6.54421 20.5578 7.10634 21.0536 8.01206C21.5494 8.91778 21.5494 10.0103 21.5494 12.1955V13.6479C21.5494 17.3726 21.5494 19.2351 20.4307 20.3922C19.312 21.5494 17.5115 21.5494 13.9105 21.5494H10.091C6.49003 21.5494 4.68953 21.5494 3.57083 20.3922C2.45215 19.2351 2.45215 17.3726 2.45215 13.6479V12.1955Z" fill=""/>
<path d="M11.2842 17.7292C11.2842 18.1247 11.6048 18.4453 12.0003 18.4453C12.3958 18.4453 12.7165 18.1247 12.7165 17.7292V14.8646C12.7165 14.4691 12.3958 14.1484 12.0003 14.1484C11.6048 14.1484 11.2842 14.4691 11.2842 14.8646V17.7292Z" fill=""/>
</svg>
