<svg width="20" height="20" viewBox="0 0 20 20" fill="" xmlns="http://www.w3.org/2000/svg">
<path d="M18.333 4.16699C18.333 5.5477 17.2138 6.66699 15.833 6.66699C14.4523 6.66699 13.333 5.5477 13.333 4.16699C13.333 2.78628 14.4523 1.66699 15.833 1.66699C17.2138 1.66699 18.333 2.78628 18.333 4.16699Z" fill=""/>
<path opacity="0.5" d="M13.0304 1.67613C12.5096 1.66699 11.9212 1.66699 11.2503 1.66699H8.75033C6.02247 1.66699 4.65853 1.66699 3.65658 2.28099C3.09593 2.62456 2.62456 3.09593 2.28099 3.65658C1.66699 4.65853 1.66699 6.02247 1.66699 8.75033V9.58366C1.66699 11.5251 1.66699 12.4958 1.98416 13.2615C2.40705 14.2825 3.21819 15.0936 4.23914 15.5165C4.7894 15.7444 5.44551 15.8085 6.49164 15.8266C7.20026 15.8387 7.55457 15.8448 7.83598 16.0085C8.1174 16.1722 8.2926 16.4682 8.64299 17.0602L9.09474 17.8234C9.49741 18.5037 10.5032 18.5037 10.9059 17.8234L11.3577 17.0602C11.708 16.4682 11.8832 16.1722 12.1647 16.0085C12.4461 15.8448 12.8003 15.8387 13.509 15.8266C14.5552 15.8085 15.2112 15.7444 15.7615 15.5165C16.7825 15.0936 17.5936 14.2825 18.0165 13.2615C18.3337 12.4958 18.3337 11.5251 18.3337 9.58366V8.75033C18.3337 8.07944 18.3337 7.49107 18.3245 6.97028C17.6622 7.55923 16.7897 7.91699 15.8337 7.91699C13.7626 7.91699 12.0837 6.23806 12.0837 4.16699C12.0837 3.21095 12.4414 2.33847 13.0304 1.67613Z" fill=""/>
</svg>
