<svg width="26" height="26" viewBox="0 0 26 26" fill="none" xmlns="http://www.w3.org/2000/svg">
<path d="M12.0767 2.21993C12.4183 1.39864 13.5817 1.39864 13.9233 2.21993L16.204 7.70329C16.348 8.04953 16.6736 8.28609 17.0474 8.31606L22.9671 8.79064C23.8538 8.86173 24.2133 9.96824 23.5378 10.5469L19.0276 14.4104C18.7428 14.6543 18.6184 15.0371 18.7054 15.4019L20.0833 21.1785C20.2897 22.0438 19.3485 22.7276 18.5894 22.264L13.5213 19.1684C13.2012 18.9729 12.7988 18.9729 12.4787 19.1684L7.41061 22.264C6.65152 22.7276 5.71026 22.0438 5.91665 21.1785L7.2946 15.4019C7.38161 15.0371 7.25723 14.6543 6.97245 14.4104L2.46222 10.5469C1.78668 9.96824 2.14621 8.86173 3.03286 8.79064L8.95261 8.31606C9.3264 8.28609 9.65201 8.04952 9.79602 7.70329L12.0767 2.21993Z" fill="#D79129"/>
</svg>
