<svg width="27" height="26" viewBox="0 0 27 26" fill="none" xmlns="http://www.w3.org/2000/svg">
<g clip-path="url(#clip0_520_2175)">
<path d="M26.3158 5.06975C25.3645 5.48701 24.351 5.76358 23.2943 5.89787C24.3814 5.2488 25.2111 4.22884 25.6012 2.99945C24.5876 3.60376 23.4685 4.03061 22.2759 4.26881C21.3135 3.24405 19.9418 2.60938 18.4454 2.60938C15.5422 2.60938 13.205 4.96584 13.205 7.85466C13.205 8.27032 13.2401 8.66999 13.3265 9.05047C8.96684 8.83785 5.10922 6.74837 2.51775 3.56539C2.06532 4.35034 1.79994 5.2488 1.79994 6.21601C1.79994 8.03211 2.73517 9.64199 4.12922 10.574C3.28672 10.558 2.4602 10.3134 1.75997 9.92815C1.75997 9.94414 1.75997 9.96492 1.75997 9.9857C1.75997 12.534 3.57768 14.6507 5.96132 15.1383C5.53447 15.255 5.06925 15.3109 4.58645 15.3109C4.25072 15.3109 3.9118 15.2917 3.59366 15.2214C4.27311 17.2981 6.20112 18.8248 8.49363 18.8744C6.7095 20.27 4.44417 21.1109 1.99178 21.1109C1.56174 21.1109 1.14928 21.0918 0.736816 21.039C3.0597 22.537 5.81264 23.3923 8.78139 23.3923C18.4311 23.3923 23.7067 15.3988 23.7067 8.47015C23.7067 8.23834 23.6987 8.01453 23.6875 7.79231C24.7283 7.05372 25.6028 6.13128 26.3158 5.06975Z" fill="white"/>
</g>
<defs>
<clipPath id="clip0_520_2175">
<rect width="25.5789" height="25.5789" fill="white" transform="translate(0.736816 0.210938)"/>
</clipPath>
</defs>
</svg>
