<svg width="1250" height="23" viewBox="0 0 1250 23" fill="none" xmlns="http://www.w3.org/2000/svg">
<mask id="path-1-inside-1_563_784" fill="white">
<path d="M0 23H21C24.3137 23 27 20.3137 27 17V0H6C2.68629 0 0 2.68629 0 6V23Z"/>
</mask>
<path d="M0 23H27H0ZM27 -1H6C2.13401 -1 -1 2.13401 -1 6H1C1 3.23858 3.23858 1 6 1H27V-1ZM6 -1C2.13401 -1 -1 2.13401 -1 6V23H1V6C1 3.23858 3.23858 1 6 1V-1ZM27 23V0V23Z" fill="url(#paint0_linear_563_784)" mask="url(#path-1-inside-1_563_784)"/>
<mask id="path-3-inside-2_563_784" fill="white">
<path d="M1250 23H1229C1225.69 23 1223 20.3137 1223 17V0H1244C1247.31 0 1250 2.68629 1250 6V23Z"/>
</mask>
<path d="M1250 23H1223H1250ZM1223 -1H1244C1247.87 -1 1251 2.13401 1251 6H1249C1249 3.23858 1246.76 1 1244 1H1223V-1ZM1244 -1C1247.87 -1 1251 2.13401 1251 6V23H1249V6C1249 3.23858 1246.76 1 1244 1V-1ZM1223 23V0V23Z" fill="url(#paint1_linear_563_784)" mask="url(#path-3-inside-2_563_784)"/>
<defs>
<linearGradient id="paint0_linear_563_784" x1="-42.4999" y1="-11.5001" x2="-12.6415" y2="37.834" gradientUnits="userSpaceOnUse">
<stop stop-color="#FFCB7C"/>
<stop offset="1" stop-color="#FFCB7C" stop-opacity="0"/>
</linearGradient>
<linearGradient id="paint1_linear_563_784" x1="1292.5" y1="-11.5001" x2="1262.64" y2="37.834" gradientUnits="userSpaceOnUse">
<stop stop-color="#FFCB7C"/>
<stop offset="1" stop-color="#FFCB7C" stop-opacity="0"/>
</linearGradient>
</defs>
</svg>
