<svg width="28" height="28" viewBox="0 0 28 28" fill="none" xmlns="http://www.w3.org/2000/svg">
<g clip-path="url(#clip0_236_15453)">
<path d="M14 0.0004375C10.2913 0.0004375 6.92212 1.44506 4.41744 3.79925L3.9375 3.31888V2.1875C3.9375 2.114 3.91519 2.04838 3.88325 1.98756C3.87713 1.96 3.86181 1.93025 3.82681 1.89525L2.05975 0.128188H2.05931C1.98012 0.0485625 1.87075 0 1.75 0C1.50806 0 1.3125 0.195563 1.3125 0.4375V1.3125H0.4375C0.195563 1.3125 0 1.50806 0 1.75C0 1.87075 0.049 1.98013 0.128188 2.05931L1.87775 3.80888C1.87819 3.80931 1.87819 3.80931 1.87819 3.80931L1.89613 3.82725C1.93113 3.86225 1.96044 3.87756 1.988 3.88369C2.04838 3.91519 2.11444 3.9375 2.1875 3.9375H3.31888L3.79881 4.41788C1.44506 6.92213 0 10.2913 0 14.0004C0 21.7324 6.26806 28.0004 14 28.0004C21.7319 28.0004 28 21.7324 28 14.0004C28 6.2685 21.7319 0.0004375 14 0.0004375ZM14 26.25C7.2345 26.25 1.75 20.7655 1.75 14C1.75 10.7748 2.99862 7.84263 5.03606 5.65469L6.27331 6.89238C4.55219 8.76181 3.5 11.2578 3.5 14C3.5 19.7991 8.20094 24.5 14 24.5C19.7991 24.5 24.5 19.7991 24.5 14C24.5 8.20094 19.7991 3.5 14 3.5C11.2577 3.5 8.76225 4.55175 6.89194 6.27375L5.65469 5.03606C7.84219 2.99863 10.7747 1.75 14 1.75C20.7655 1.75 26.25 7.2345 26.25 14C26.25 20.7655 20.7655 26.25 14 26.25ZM8.75569 9.37431C7.66631 10.6085 7 12.2242 7 14C7 17.8662 10.1338 21 14 21C17.8662 21 21 17.8662 21 14C21 10.1338 17.8662 7 14 7C12.2242 7 10.6085 7.66631 9.37431 8.75569L8.13706 7.51844C9.68931 6.11319 11.7412 5.25 14 5.25C18.8326 5.25 22.75 9.16738 22.75 14C22.75 18.8326 18.8326 22.75 14 22.75C9.16738 22.75 5.25 18.8326 5.25 14C5.25 11.7412 6.11319 9.68888 7.51844 8.13706L8.75569 9.37431ZM11.2381 11.8567C10.7769 12.4491 10.5 13.1915 10.5 14.0004C10.5 15.9333 12.0671 17.5004 14 17.5004C15.9329 17.5004 17.5 15.9333 17.5 14.0004C17.5 12.0676 15.9329 10.5004 14 10.5004C13.1915 10.5004 12.4491 10.7774 11.8567 11.2381L10.612 9.99337C11.5268 9.219 12.7081 8.75 14 8.75C16.8993 8.75 19.25 11.1007 19.25 14C19.25 16.8993 16.8993 19.25 14 19.25C11.1007 19.25 8.75 16.8993 8.75 14C8.75 12.7081 9.219 11.5268 9.99337 10.612L11.2381 11.8567ZM13.6907 14.3093C13.8617 14.4804 14.1383 14.4804 14.3093 14.3093C14.4804 14.1383 14.4804 13.8618 14.3093 13.6907L13.1163 12.4976C13.3766 12.3445 13.6763 12.2504 14 12.2504C14.9664 12.2504 15.75 13.034 15.75 14.0004C15.75 14.9669 14.9664 15.7504 14 15.7504C13.0336 15.7504 12.25 14.9669 12.25 14.0004C12.25 13.6763 12.3441 13.3766 12.4976 13.1163L13.6907 14.3093Z" fill="white"/>
</g>
<defs>
<clipPath id="clip0_236_15453">
<rect width="28" height="28" fill="white"/>
</clipPath>
</defs>
</svg>
