<svg width="26" height="26" viewBox="0 0 26 26" fill="none" xmlns="http://www.w3.org/2000/svg">
<path d="M4.18521 17.8265C3.25577 14.1087 2.79105 12.2498 3.76695 11C4.74285 9.75 6.65895 9.75 10.4911 9.75H15.5077C19.3399 9.75 21.256 9.75 22.2319 11C23.2078 12.2498 22.7431 14.1087 21.8137 17.8265C21.2225 20.1911 20.9269 21.3733 20.0454 22.0616C19.1637 22.75 17.9451 22.75 15.5077 22.75H10.4911C8.05379 22.75 6.83512 22.75 5.95353 22.0616C5.07193 21.3733 4.77635 20.1911 4.18521 17.8265Z" stroke="white" stroke-width="1.5625"/>
<path d="M21.125 10.2913L20.3554 7.46888C20.0587 6.38056 19.9103 5.8364 19.6059 5.42659C19.3028 5.01847 18.8909 4.70388 18.4175 4.51882C17.9421 4.33301 17.3781 4.33301 16.25 4.33301M4.875 10.2913L5.6446 7.46888C5.94135 6.38056 6.08972 5.8364 6.39406 5.42659C6.69716 5.01847 7.10901 4.70388 7.58249 4.51882C8.05792 4.33301 8.62195 4.33301 9.75 4.33301" stroke="white" stroke-width="1.5625"/>
<path d="M9.75 4.33333C9.75 3.73503 10.235 3.25 10.8333 3.25H15.1667C15.765 3.25 16.25 3.73503 16.25 4.33333C16.25 4.93164 15.765 5.41667 15.1667 5.41667H10.8333C10.235 5.41667 9.75 4.93164 9.75 4.33333Z" stroke="white" stroke-width="1.5625"/>
<path d="M8.66797 14.083V18.4163" stroke="white" stroke-width="1.5625" stroke-linecap="round" stroke-linejoin="round"/>
<path d="M17.332 14.083V18.4163" stroke="white" stroke-width="1.5625" stroke-linecap="round" stroke-linejoin="round"/>
<path d="M13 14.083V18.4163" stroke="white" stroke-width="1.5625" stroke-linecap="round" stroke-linejoin="round"/>
</svg>
