<svg width="32" height="32" viewBox="0 0 32 32" fill="none" xmlns="http://www.w3.org/2000/svg">
<path fill-rule="evenodd" clip-rule="evenodd" d="M19.2629 21.8362L27.0586 14.0638C28.1814 12.9445 28.7428 12.3848 29.0384 11.6731C29.3341 10.9614 29.3341 10.1699 29.3341 8.58694V7.83069C29.3341 5.3965 29.3341 4.17941 28.5756 3.42319C27.8172 2.66699 26.5964 2.66699 24.1549 2.66699H23.3964C21.8086 2.66699 21.0148 2.66699 20.3009 2.96179C19.587 3.25659 19.0257 3.81626 17.903 4.93561L10.1072 12.708C8.7953 14.0159 7.98186 14.827 7.66686 15.6103C7.56734 15.8578 7.51758 16.1026 7.51758 16.3593C7.51758 17.4287 8.38078 18.2894 10.1072 20.0106L10.3392 20.2419L13.0572 17.4834C13.4449 17.0899 14.078 17.0853 14.4714 17.4729C14.8648 17.8605 14.8694 18.4937 14.4818 18.8871L11.7556 21.6541L11.9383 21.8362C13.6648 23.5575 14.528 24.4181 15.6006 24.4181C15.8376 24.4181 16.0644 24.3761 16.2925 24.2921C17.0969 23.9958 17.918 23.1771 19.2629 21.8362ZM22.9253 12.7086C21.914 13.7169 20.2744 13.7169 19.263 12.7086C18.2517 11.7003 18.2517 10.0656 19.263 9.05731C20.2744 8.04903 21.914 8.04903 22.9253 9.05731C23.9366 10.0656 23.9366 11.7003 22.9253 12.7086Z" fill="white"/>
<g opacity="0.5">
<path d="M12.0451 7.95073L8.6542 11.3314C8.03094 11.9528 7.45919 12.5228 7.00767 13.0381C6.71771 13.3689 6.42795 13.7312 6.18251 14.1313L6.14947 14.0984C6.08675 14.0359 6.05537 14.0045 6.02387 13.974C5.4345 13.4021 4.74123 12.9475 3.98117 12.6343C3.94055 12.6176 3.89933 12.6013 3.81687 12.5686L3.31201 12.3685C2.62806 12.0975 2.44578 11.2171 2.96621 10.6982C4.45982 9.20912 6.25311 7.42125 7.11856 7.06216C7.88182 6.74548 8.70633 6.6401 9.50154 6.75762C10.2302 6.8653 10.9194 7.23957 12.0451 7.95073Z" fill="white"/>
<path d="M17.834 25.7512C18.1072 26.0285 18.2887 26.2244 18.4528 26.4337C18.6692 26.7099 18.8628 27.0032 19.0315 27.3108C19.2213 27.6571 19.3688 28.0269 19.6637 28.7667C19.9037 29.3689 20.7013 29.5281 21.1645 29.0663L21.2765 28.9545C22.7701 27.4653 24.5633 25.6775 24.9234 24.8147C25.2412 24.0536 25.3468 23.2316 25.2289 22.4388C25.1209 21.7124 24.7457 21.0253 24.0325 19.9033L20.6304 23.2953C19.9929 23.9308 19.4085 24.5136 18.88 24.97C18.5632 25.2436 18.2167 25.5171 17.834 25.7512Z" fill="white"/>
</g>
</svg>
