<svg width="30" height="30" viewBox="0 0 30 30" fill="none" xmlns="http://www.w3.org/2000/svg">
<path d="M26.25 19.9979V12.4978C26.25 8.96229 26.25 7.19452 25.1516 6.09617C24.1911 5.1357 22.7188 5.01514 20 5H10C7.28121 5.01514 5.80883 5.1357 4.84835 6.09617C3.75 7.19452 3.75 8.96229 3.75 12.4978V19.9979C3.75 23.5334 3.75 25.3011 4.84835 26.3995C5.9467 27.4979 7.71446 27.4979 11.25 27.4979H18.75C22.2855 27.4979 24.0532 27.4979 25.1516 26.3995C26.25 25.3011 26.25 23.5334 26.25 19.9979Z" fill="white"/>
<path d="M10.5 4.375C10.5 3.6156 11.1156 3 11.875 3H18.125C18.8844 3 19.5 3.61561 19.5 4.375V5.625C19.5 6.38439 18.8844 7 18.125 7H11.875C11.1156 7 10.5 6.3844 10.5 5.625V4.375Z" fill="white" stroke="#0E7490"/>
<path fill-rule="evenodd" clip-rule="evenodd" d="M7.8125 13.125C7.8125 12.6072 8.23224 12.1875 8.75 12.1875H9.375C9.89276 12.1875 10.3125 12.6072 10.3125 13.125C10.3125 13.6427 9.89276 14.0625 9.375 14.0625H8.75C8.23224 14.0625 7.8125 13.6427 7.8125 13.125ZM12.1875 13.125C12.1875 12.6072 12.6072 12.1875 13.125 12.1875H21.25C21.7677 12.1875 22.1875 12.6072 22.1875 13.125C22.1875 13.6427 21.7677 14.0625 21.25 14.0625H13.125C12.6072 14.0625 12.1875 13.6427 12.1875 13.125ZM7.8125 17.5C7.8125 16.9822 8.23224 16.5625 8.75 16.5625H9.375C9.89276 16.5625 10.3125 16.9822 10.3125 17.5C10.3125 18.0177 9.89276 18.4375 9.375 18.4375H8.75C8.23224 18.4375 7.8125 18.0177 7.8125 17.5ZM12.1875 17.5C12.1875 16.9822 12.6072 16.5625 13.125 16.5625H21.25C21.7677 16.5625 22.1875 16.9822 22.1875 17.5C22.1875 18.0177 21.7677 18.4375 21.25 18.4375H13.125C12.6072 18.4375 12.1875 18.0177 12.1875 17.5ZM7.8125 21.875C7.8125 21.3572 8.23224 20.9375 8.75 20.9375H9.375C9.89276 20.9375 10.3125 21.3572 10.3125 21.875C10.3125 22.3927 9.89276 22.8125 9.375 22.8125H8.75C8.23224 22.8125 7.8125 22.3927 7.8125 21.875ZM12.1875 21.875C12.1875 21.3572 12.6072 20.9375 13.125 20.9375H21.25C21.7677 20.9375 22.1875 21.3572 22.1875 21.875C22.1875 22.3927 21.7677 22.8125 21.25 22.8125H13.125C12.6072 22.8125 12.1875 22.3927 12.1875 21.875Z" fill="#0E7490"/>
</svg>
